/* XPM */
static char * image_name [] = {
"527 31 4 1",.
/* pixels*/
" 	c #c0c0c0c0c0c0",
"B	c #737373737373",
"C	c #ffffffffffff",
"D	c #000000000000",
"                                                                                                                                                                                                                                                                                                                                                                                                                                                                                                                                               ",
"                                                                                                                                                                                                                                                                                                                                                                                                                                                                                                                                               ",
"                                                                                                                                                                                                                                                                                                                                                                                                                                                                                                                                               ",
"                                                                                                                                                                                                                                                                                                                                                                                                                                                                                                                                               ",
"                                                                                                                                                                                                                                                                                                                                                                                                                                                                                                                                               ",
"                                                                                                                                                                                                                                                                                                                                                                                                                                                                                                                                               ",
"                                                                                                                                                                                                                                                                                                                                                                                                                                                                                                                                               ",
"                                                                                                                                                                                                                                                                                                                                                                                                                                                                                                                                               ",
"                                                                                                                         BBBBBBBBBBBBBBBBBBBBBBBBBBBBBBBBBBBBBBBBBBBBBBBBBBBBBBBBBBBBBB                                                  BBBBBBBBBBBBBBBBBBBBBBBBBBBBBBBBBBBBBBBBBBBBBBBBBBBBBBBBBBBBBB                                                  BBBBBBBBBBBBBBBBBBBBBBBBBBBBBBBBBBBBBBBBBBBBBBBBBBBBBBBBBBBBBB                                                  BBBBBBBBBBBBBBBBBBBBBBBBBBBBBBBBBBBBBBBBBBBBBBBBBBBBBBBBBBBBBB        ",
"                                                                                                                         BBBBBBBBBBBBBBBBBBBBBBBBBBBBBBBBBBBBBBBBBBBBBBBBBBBBBBBBBBBBBC                                                  BBBBBBBBBBBBBBBBBBBBBBBBBBBBBBBBBBBBBBBBBBBBBBBBBBBBBBBBBBBBBC                                                  BBBBBBBBBBBBBBBBBBBBBBBBBBBBBBBBBBBBBBBBBBBBBBBBBBBBBBBBBBBBBC                                                  BBBBBBBBBBBBBBBBBBBBBBBBBBBBBBBBBBBBBBBBBBBBBBBBBBBBBBBBBBBBBC        ",
"                                                                                                                         BB                                                          CC                                                  BB                                                          CC                                                  BB                                                          CC                                                  BB                                                          CC        ",
"                                                                                                                         BB                                                          CC                                                  BB                                                          CC                                                  BB                                                          CC                                                  BB                                                          CC        ",
"                                                                                                                         BB                                                          CC                                                  BB                                                          CC                                                  BB                                                          CC                                                  BB                                                          CC        ",
"                    DDDD           DD  DD                                               DDDD  DDDDDD                     BB   DD    DDDD                                             CC          DDDDDD                                  BB   DD           DD                                        CC      DD   DD        DD                           BB      DDDD   DDDD    DD                                   CC          DDDDD          DD                       BB      DDDD   DDDD   DDDD                                  CC        ",
"                   DD  DD          DD                                                  DD  DD DD                         BB DDDD   DD  DD                                            CC          DD                                      BB DDDD          DDD                                        CC      DDD  DD                                     BB     DD  DD DD  DD DDDD                                   CC         DD   DD         DD                       BB     DD  DD DD  DD DD  DD                                 CC        ",
"                  DD    DD DD DD  DDDD DD  DDDD  DD DD                                DD      DD      DD                 BB   DD   DD  DD                                            CC          DD    DD DD DDDD   DDD D  DD            BB   DD         D DD                                        CC      DDD  DD  DDDD  DD  DDDD   DDDD   DD         BB     DD  DD DD  DD   DD                                   CC        DD        DDDD  DDDD  DDDD   DD           BB     DD  DD DD  DD     DD                                 CC        ",
"                  DD    DD DDD DD  DD  DD DD  DD DDD DD                               DD      DD      DD                 BB   DD   DD  DD                                            CC          DD    DDDDDDD  DD DD DDD  DD            BB   DD         D DD                                        CC      DD D DD DD  DD DD DD  DD DD  DD  DD         BB     DD  DD DD  DD   DD                                   CC        DD       DD  DD  DD  DD  DD  DD           BB     DD  DD DD  DD   DDD                                  CC        ",
"                  DD    DD DD  DD  DD  DD DD  DD DD  DD                               DD      DDDDDD                     BB   DD   DD  DD                                            CC          DDDDD DDD  DD  DD DD  DD                BB   DD        D  DD                                        CC      DD D DD DD  DD DD DDD    DD  DD             BB     DD  DD DD  DD   DD                                   CC        DD  DDDD     DD  DD  DD  DD               BB     DD  DD DD  DD     DD                                 CC        ",
"                  DD    DD DD  DD  DD  DD DD  DD DD  DD                               DD      DD                         BB   DD   DD  DD                                            CC          DD    DD   DDDDDD DD  DD                BB   DD       D   DD                                        CC      DD  DDD DD  DD DD   DDD  DDDDDD             BB     DD  DD DD  DD   DD                                   CC        DD    DD  DDDDD  DD  DDDDDD               BB     DD  DD DD  DD     DD                                 CC        ",
"                  DD    DD DD  DD  DD  DD DD  DD DD  DD                               DD      DD                         BB   DD   DD  DD                                            CC          DD    DD   DD     DD  DD                BB   DD       DDDDDDD                                       CC      DD  DDD DD  DD DD    DDD DD                 BB     DD  DD DD  DD   DD                                   CC        DD    DD DD  DD  DD  DD                   BB     DD  DD DD  DD     DD                                 CC        ",
"                   DD  DD  DDD DD  DD DDD DD  DD DD  DD  DD  DD  DD                    DD  DD DD      DD                 BB   DD   DD  DD                                            CC          DD    DD   DD  DD DD DDD  DD            BB   DD    DD     DD                                        CC      DD   DD DD  DD DD DD  DD DD  DD  DD         BB  DD DD  DD DD  DD   DD                                   CC         DD   DD DD  DD  DD DDD  DD  DD           BB  DD DD  DD DD  DD DD  DD                                 CC        ",
"                    DDDD   DD DD    DD DD  DDDD  DD  DD  DD  DD  DD                     DDDD  DDDDDD  DD                 BB   DD    DDDD                                             CC          DD    DD    DDDD   DD DD  DD            BB   DD    DD     DD                                        CC      DD   DD  DDDD  DD  DDDD   DDDD   DD         BB  DD  DDDD   DDDD    DD                                   CC          DDDD D  DDD DD  DD  DDDD   DD           BB  DD  DDDD   DDDD   DDDD                                  CC        ",
"                           DD                                                                                            BB                                                          CC                                DD                BB                                                          CC                                                  BB                                                          CC                                                  BB                                                          CC        ",
"                           DD                                                                                            BB                                                          CC                                DD                BB                                                          CC                                                  BB                                                          CC                                                  BB                                                          CC        ",
"                           DD                                                                                            BB                                                          CC                                DD                BB                                                          CC                                                  BB                                                          CC                                                  BB                                                          CC        ",
"                                                                                                                         BB                                                          CC                                                  BB                                                          CC                                                  BB                                                          CC                                                  BB                                                          CC        ",
"                                                                                                                         BBCCCCCCCCCCCCCCCCCCCCCCCCCCCCCCCCCCCCCCCCCCCCCCCCCCCCCCCCCCCC                                                  BBCCCCCCCCCCCCCCCCCCCCCCCCCCCCCCCCCCCCCCCCCCCCCCCCCCCCCCCCCCCC                                                  BBCCCCCCCCCCCCCCCCCCCCCCCCCCCCCCCCCCCCCCCCCCCCCCCCCCCCCCCCCCCC                                                  BBCCCCCCCCCCCCCCCCCCCCCCCCCCCCCCCCCCCCCCCCCCCCCCCCCCCCCCCCCCCC        ",
"                                                                                                                         BCCCCCCCCCCCCCCCCCCCCCCCCCCCCCCCCCCCCCCCCCCCCCCCCCCCCCCCCCCCCC                                                  BCCCCCCCCCCCCCCCCCCCCCCCCCCCCCCCCCCCCCCCCCCCCCCCCCCCCCCCCCCCCC                                                  BCCCCCCCCCCCCCCCCCCCCCCCCCCCCCCCCCCCCCCCCCCCCCCCCCCCCCCCCCCCCC                                                  BCCCCCCCCCCCCCCCCCCCCCCCCCCCCCCCCCCCCCCCCCCCCCCCCCCCCCCCCCCCCC        ",
"                                                                                                                                                                                                                                                                                                                                                                                                                                                                                                                                               ",
"                                                                                                                                                                                                                                                                                                                                                                                                                                                                                                                                               ",
"                                                                                                                                                                                                                                                                                                                                                                                                                                                                                                                                               ",
};
