/* XPM */
static char * image_name [] = {
"502 31 3 1",.
/* pixels*/
" 	c #c0c0c0c0c0c0",
"B	c #737373737373",
"C	c #000000000000",
"                                                                                                                                                                                                                                                                                                                                                                                                                                                                                                                      ",
"                                                                                                                                                                                                                                                                                                                                                                                                                                                                                                                      ",
"                                                                                                                                                                                                                                                                                                                                                                                                                                                                                                                      ",
"                                                                                                                                                                                                                                                                                                                                                                                                                                                                                                                      ",
"                                                                                                                                                                                                                                                                                                                                                                                                                                                                                                                      ",
"   BBBBBBBBBBBBBBBBBBBBBBBBBBBBBBBBBBBBBBBBBBBBBBBBBBBBBBBBBBBBBBBBBBBBBBBBBBBBBBBBBBBBBBBBBBBBBBBBBBBBBBBBBBBBBBBBBBBBBBBBBBBBBBBBBBBBBBBBBBBBBBBBBBBBBBBBBBBBBBBBBBBBBBBBBBBBBBBBBBBBBBBBBBBBBBBBBBBBBBBBBBBBBBBBBBBBBBBBBBBBBBBBBBBBBBBBBBBBBBBBBBBBBBBBBBBBBBBBBBBBBBBBBBBBBBBBBBBBBBBBBBBBBBBBBBBBBBBBBBBBBBBBBBBBBBBBBBBBBBBBBBBBBBBBBBBBBBBBBBBBBBBBBBBBBBBBBBBBBBBBBBBBBBBBBBBBBBBBBBBBBBBBBBBBBBBBBBBBBBBBBBBBBBBBBBBBBBBBBBBBBBBBBBBBBBBBBBBBBBBBBBBBBBBBBBBBBBBBBBBBBBBBBBBBBBBBBBBBBBBBBBBBBBBBBBBBBBBBBBB",
"   BBBBBBBBBBBBBBBBBBBBBBBBBBBBBBBBBBBBBBBBBBBBBBBBBBBBBBBBBBBBBBBBBBBBBBBBBBBBBBBBBBBBBBBBBBBBBBBBBBBBBBBBBBBBBBBBBBBBBBBBBBBBBBBBBBBBBBBBBBBBBBBBBBBBBBBBBBBBBBBBBBBBBBBBBBBBBBBBBBBBBBBBBBBBBBBBBBBBBBBBBBBBBBBBBBBBBBBBBBBBBBBBBBBBBBBBBBBBBBBBBBBBBBBBBBBBBBBBBBBBBBBBBBBBBBBBBBBBBBBBBBBBBBBBBBBBBBBBBBBBBBBBBBBBBBBBBBBBBBBBBBBBBBBBBBBBBBBBBBBBBBBBBBBBBBBBBBBBBBBBBBBBBBBBBBBBBBBBBBBBBBBBBBBBBBBBBBBBBBBBBBBBBBBBBBBBBBBBBBBBBBBBBBBBBBBBBBBBBBBBBBBBBBBBBBBBBBBBBBBBBBBBBBBBBBBBBBBBBBBBBBBBBBBBBBBBBBBBBBB",
"   BB                                                                                                                                                                                                                                                                                                                                                                                                                                                                                                                 ",
"   BB                                                                                                                                                                                                                                                                                                                                                                                                                                                                                                                 ",
"   BB      CC    CCCC                                                                                                                                                                                                 CC              C                                              CC                                                                          CCCC   CCCC    CC                                                                                                      CCCC   CCCC   CCCC            ",
"   BB    CCCC   CC  CC                                                                       CCCCCC                                                                                                                 CCCC             CC                             CCC  CCC                                                                                    CC  CC CC  CC CCCC                         CCCC          CC                                                            CC  CC CC  CC CC  CC           ",
"   BB      CC   CC  CC                                                                        CC  C                                                                                                                   CC            CCC                              CC   C                                                                                     CC  CC CC  CC   CC                        CC  CC         CC                                                            CC  CC CC  CC     CC           ",
"   BB      CC   CC  CC                                                                        CC    CC CCC  CCCC   CCC CCCC CCC  CCCC CC CCC   CCCCCCCCC CCC  CC                                                      CC           C CC                              CCC  C  CCCC  CCCC    CCCCC  CCCC    CC                                                    CC  CC CC  CC   CC                        CC  CC  CCCC  CCCCCC  CCCC    CC                                             CC  CC CC  CC     CC           ",
"   BB      CC   CC  CC                                                                        CCCC   CCC C CC  CC CC  CC CC  CC CC  CC CCC CC CC  CC CC  CC   CC                                                      CC           C CC                              CCCC C CC  CC   CC   CCC  C CC  CC   CC                                                    CC  CC CC  CC   CC                        CC         CC  CC    CC  CC   CC                                             CC  CC CC  CC   CCC            ",
"   BB      CC   CC  CC                                                                        CC C   CC    CCCCCC CC  CC CC  CC CCCCCC CC  CC CC     CC  C                                                            CC          C  CC                              C CCCC CC  CC   CC    CCCC  CCCCCC                                                         CC  CC CC  CC   CC                        CC CCC  CCCCC  CC    CCCCCC                                                  CC  CC CC  CC     CC           ",
"   BB      CC   CC  CC                                                                        CC     CC    CC     CC  CC CC  CC CC     CC  CC CC      CCCC                                                            CC          CCCCCC                             C  CCC CC  CC   CC      CCC CC                                                             CC  CC CC  CC   CC                        CC  CC CC  CC  CC    CC                                                      CC  CC CC  CC     CC           ",
"   BB      CC   CC  CC                                                                        CC     CC    CC  CC CC  CC CC  CC CC  CC CC  CC CC  CC  CCC     CC                                                      CC     CC      CC                              C   CC CC  CC   CC   CC  CC CC  CC   CC                                               CC   CC  CC CC  CC   CC                        CC  CC CC  CC  CC  C CC  CC   CC                                        CC   CC  CC CC  CC CC  CC           ",
"   BB    CCCCCC  CCCC                                                                        CCCC   CCCCC   CCCC   CCCCC  CCC CC CCCC CCCC CC  CCCC    CC     CC                                                    CCCCCC   CC     CCCC                            CCC  CC  CCCC  CCCCCC  CCCC   CCCC    CC                                               CC    CCCC   CCCC  CCCCCC                       CCCC   CCCCCC  CCC   CCCC    CC                                        CC    CCCC   CCCC   CCCC            ",
"   BB                                                                                                                 CC                              CC                                                                                                                                                                                                                                                                                                                                                              ",
"   BB                                                                                                                 CC                              CC                                                                                                                                                                                                                                                                                                                                                              ",
"   BB                                                                                                                CCCC                            CCCC                                                                                                                                                                                                                                                                                                                                                             ",
"   BB                                                                                                                                                                                                                                                                                                                                                                                                                                                                                                                 ",
"   BB                                                                                                                                                                                                                                                                                                                                                                                                                                                                                                                 ",
"   BB                                                                                                                                                                                                                                                                                                                                                                                                                                                                                                                 ",
"   BB                                                                                                                                                                                                                                                                                                                                                                                                                                                                                                                 ",
"   BB                                                                                                                                                                                                                                                                                                                                                                                                                                                                                                                 ",
"   BB                                                                                                                                                                                                                                                                                                                                                                                                                                                                                                                 ",
"   BB                                                                                                                                                                                                                                                                                                                                                                                                                                                                                                                 ",
"   BB                                                                                                                                                                                                                                                                                                                                                                                                                                                                                                                 ",
"   BB                                                                                                                                                                                                                                                                                                                                                                                                                                                                                                                 ",
"   BB                                                                                                                                                                                                                                                                                                                                                                                                                                                                                                                 ",
};
