/* XPM */
static char * image_name [] = {
"115 89 12 1",.
/* pixels*/
" 	c #000000000000",
"B	c #0c0c0c0c0c0c",
"C	c #1a1a1a1a1a1a",
"D	c #323232323232",
"E	c #4c4c4c4c4c4c",
"F	c #666666666666",
"G	c #818181818181",
"H	c #999999999999",
"I	c #b3b3b3b3b3b3",
"J	c #ffff00000000",
"K	c #cdcdcdcdcdcd",
"L	c #e5e5e5e5e5e5",
"                                                                                                                   ",
"                                                                                                                   ",
"                                                                                                                   ",
"BBBBBBBBBBBBBBBBBBBBBBBBBBBBBBBBBBBBBBBBBBBBBBBBBBBBBBBBBBBBBBBBBBBBBBBBBBBBBBBBBBBBBBBBBBBBBBBBBBBBBBBBBBBBBBBBBB ",
"BBBBBBBBBBBBBBBBBBBBBBBBBBBBBBBBBBBBBBBBBBBBBBBBBBBBBBBBBBBBBBBBBBBBBBBBBBBBBBBBBBBBBBBBBBBBBBBBBBBBBBBBBBBBBBBBBB ",
"BBBBBBBBBBBBBBBBBBBBBBBBBBBBBBBBBBBBBBBBBBBBBBBBBBBBBBBBBBBBBBBBBBBBBBBBBBBBBBBBBBBBBBBBBBBBBBBBBBBBBBBBBBBBBBBBBB ",
"BBBBBBBBBBBBBBBBBBBBBBBBBBBBBBBBBBBBBBBBBBBBBBBBBBBBBBBBBBBBBBBBBBBBBBBBBBBBBBBBBBBBBBBBBBBBBBBBBBBBBBBBBBBBBBBBBB ",
"BBBBBBBBBBBBBBBBBBBBBBBBBBBBBBBBBBBBBBBBBBBBBBBBBBBBBBBBBBBBBBBBBBBBBBBBBBBBBBBBBBBBBBBBBBBBBBBBBBBBBBBBBBBBBBBBBB ",
"BBBBBBCCCCCCCCCCCCCCCCCCCCCCCCCCCCCCCCCCCCCCCCCCCCCCCCCCCCCCCCCCCCCCCCCCCCCCCCCCCCCCCCCCCCCCCCCCCCCCCCCCCCCCBBBBBB ",
"BBBBBBCCCCCCCCCCCCCCCCCCCCCCCCCCCCCCCCCCCCCCCCCCCCCCCCCCCCCCCCCCCCCCCCCCCCCCCCCCCCCCCCCCCCCCCCCCCCCCCCCCCCCCBBBBBB ",
"BBBBBBCCCCCCCCCCCCCCCCCCCCCCCCCCCCCCCCCCCCCCCCCCCCCCCCCCCCCCCCCCCCCCCCCCCCCCCCCCCCCCCCCCCCCCCCCCCCCCCCCCCCCCBBBBBB ",
"BBBBBBCCCCCCCCCCCCCCCCCCCCCCCCCCCCCCCCCCCCCCCCCCCCCCCCCCCCCCCCCCCCCCCCCCCCCCCCCCCCCCCCCCCCCCCCCCCCCCCCCCCCCCBBBBBB ",
"BBBBBBCCCCCCDDDDDDDDDDDDDDDDDDDDDDDDDDDDDDDDDDDDDDDDDDDDDDDDDDDDDDDDDDDDDDDDDDDDDDDDDDDDDDDDDDDDDDDDDDCCCCCCBBBBBB ",
"BBBBBBCCCCCCDDDDDDDDDDDDDDDDDDDDDDDDDDDDDDDDDDDDDDDDDDDDDDDDDDDDDDDDDDDDDDDDDDDDDDDDDDDDDDDDDDDDDDDDDDCCCCCCBBBBBB ",
"BBBBBBCCCCCCDDDDDDDDDDDDDDDDDDDDDDDDDDDDDDDDDDDDDDDDDDDDDDDDDDDDDDDDDDDDDDDDDDDDDDDDDDDDDDDDDDDDDDDDDDCCCCCCBBBBBB ",
"BBBBBBCCCCCCDDDDDDDDDDDDDDDDDDDDDDDDDDDDDDDDDDDDDDDDDDDDDDDDDDDDDDDDDDDDDDDDDDDDDDDDDDDDDDDDDDDDDDDDDDCCCCCCBBBBBB ",
"BBBBBBCCCCCCDDDDDDEEEEEEEEEEEEEEEEEEEEEEEEEEEEEEEEEEEEEEEEEEEEEEEEEEEEEEEEEEEEEEEEEEEEEEEEEEEEEEDDDDDDCCCCCCBBBBBB ",
"BBBBBBCCCCCCDDDDDDEEEEEEEEEEEEEEEEEEEEEEEEEEEEEEEEEEEEEEEEEEEEEEEEEEEEEEEEEEEEEEEEEEEEEEEEEEEEEEDDDDDDCCCCCCBBBBBB ",
"BBBBBBCCCCCCDDDDDDEEEEEEEEEEEEEEEEEEEEEEEEEEEEEEEEEEEEEEEEEEEEEEEEEEEEEEEEEEEEEEEEEEEEEEEEEEEEEEDDDDDDCCCCCCBBBBBB ",
"BBBBBBCCCCCCDDDDDDEEEEEEEEEEEEEEEEEEEEEEEEEEEEEEEEEEEEEEEEEEEEEEEEEEEEEEEEEEEEEEEEEEEEEEEEEEEEEEDDDDDDCCCCCCBBBBBB ",
"BBBBBBCCCCCCDDDDDDEEEEEEFFFFFFFFFFFFFFFFFFFFFFFFFFFFFFFFFFFFFFFFFFFFFFFFFFFFFFFFFFFFFFFFFFEEEEEEDDDDDDCCCCCCBBBBBB ",
"BBBBBBCCCCCCDDDDDDEEEEEEFFFFFFFFFFFFFFFFFFFFFFFFFFFFFFFFFFFFFFFFFFFFFFFFFFFFFFFFFFFFFFFFFFEEEEEEDDDDDDCCCCCCBBBBBB ",
"BBBBBBCCCCCCDDDDDDEEEEEEFFFFFFFFFFFFFFFFFFFFFFFFFFFFFFFFFFFFFFFFFFFFFFFFFFFFFFFFFFFFFFFFFFEEEEEEDDDDDDCCCCCCBBBBBB ",
"BBBBBBCCCCCCDDDDDDEEEEEEFFFFFFFFFFFFFFFFFFFFFFFFFFFFFFFFFFFFFFFFFFFFFFFFFFFFFFFFFFFFFFFFFFEEEEEEDDDDDDCCCCCCBBBBBB ",
"BBBBBBCCCCCCDDDDDDEEEEEEFFFFFFFFFFFFFFFFFFFFFFFFFFFFFFFFFFFFFFFFFFFFFFFFFFFFFFFFFFFFFFFFFFEEEEEEDDDDDDCCCCCCBBBBBB ",
"BBBBBBCCCCCCDDDDDDEEEEEEFFFFFFGGGGGGGGGGGGGGGGGGGGGGGGGGGGGGGGGGGGGGGGGGGGGGGGGGGGGGFFFFFFEEEEEEDDDDDDCCCCCCBBBBBB ",
"BBBBBBCCCCCCDDDDDDEEEEEEFFFFFFGGGGGGGGGGGGGGGGGGGGGGGGGGGGGGGGGGGGGGGGGGGGGGGGGGGGGGFFFFFFEEEEEEDDDDDDCCCCCCBBBBBB ",
"BBBBBBCCCCCCDDDDDDEEEEEEFFFFFFGGGGGGGGGGGGGGGGGGGGGGGGGGGGGGGGGGGGGGGGGGGGGGGGGGGGGGFFFFFFEEEEEEDDDDDDCCCCCCBBBBBB ",
"BBBBBBCCCCCCDDDDDDEEEEEEFFFFFFGGGGGGGGGGGGGGGGGGGGGGGGGGGGGGGGGGGGGGGGGGGGGGGGGGGGGGFFFFFFEEEEEEDDDDDDCCCCCCBBBBBB ",
"BBBBBBCCCCCCDDDDDDEEEEEEFFFFFFGGGGGGHHHHHHHHHHHHHHHHHHHHHHHHHHHHHHHHHHHHHHHHHHGGGGGGFFFFFFEEEEEEDDDDDDCCCCCCBBBBBB ",
"BBBBBBCCCCCCDDDDDDEEEEEEFFFFFFGGGGGGHHHHHHHHHHHHHHHHHHHHHHHHHHHHHHHHHHHHHHHHHHGGGGGGFFFFFFEEEEEEDDDDDDCCCCCCBBBBBB ",
"BBBBBBCCCCCCDDDDDDEEEEEEFFFFFFGGGGGGHHHHHHHHHHHHHHHHHHHHHHHHHHHHHHHHHHHHHHHHHHGGGGGGFFFFFFEEEEEEDDDDDDCCCCCCBBBBBB ",
"BBBBBBCCCCCCDDDDDDEEEEEEFFFFFFGGGGGGHHHHHHHHHHHHHHHHHHHHHHHHHHHHHHHHHHHHHHHHHHGGGGGGFFFFFFEEEEEEDDDDDDCCCCCCBBBBBB ",
"BBBBBBCCCCCCDDDDDDEEEEEEFFFFFFGGGGGGHHHHHHIIIIIIIIIIIIIIIIIIIIIIIIIIIIIIHHHHHHGGGGGGFFFFFFEEEEEEDDDDDDCCCCCCBBBBBB ",
"BBBBBBCCCCCCDDDDDDEEEEEEFFFFFFGGGGGGHHHHHHIIIIIIIIIIIIIIIIIIIIIIIIIIIIIIHHHHHHGGGGGGFFFFFFEEEEEEDDDDDDCCCCCCBBBBBB ",
"BBBBBBCCCCCCDDDDDDEEEEEEFFFFFFGGGGGGHHHHHHIIIIIIIIIIIIIIIIIIIIIIIIIIIIIIHHHHHHGGGGGGFFFFFFEEEEEEDDDDDDCCCCCCBBBBBB ",
"BBBBBBCCCCCCDDDDDDEEEEEEFFFFFFGJJJGGHHHHHHIIIIIIIIIIIIIIIIIIIIIIIIIIIIIIHHHHHHGGGGGGFFFFFFEEEEEEDDDDDDCCCCCCBBBBBB ",
"BBBBBBCCCCCCDDDDDDEEEEEEFFFFFFGJJJGGHHHHHHIIIIIIKKKKKKKKKKKKKKKKKKIIIIIIHHHHHHGGGGGGFFFFFFEEEEEEDDDDDDCCCCCCBBBBBB ",
"BBBBBBCCCCCCDDDDDDEEEEEEFFFFFFGJJJGGHHHHHHIIIIIIKKKKKKKKKKKKKKKKKKIIIIIIHHHHHHGGGGGGFFFFFFEEEEEEDDDDDDCCCCCCBBBBBB ",
"BBBBBBCCCCCCDDDDDDEEEEEEFFFFFFJJJJGGHHJJJJJJJJIIKJJJJJJJJKJJJJJKKKIIJJJJJHHHHJJJJJJJFFFFFFEEEEEEDDDDDDCCCCCCBBBBBB ",
"BBBBBBCCCCCCDDDDDDEEEEEEFFFFFFJJJJJGHJJJJJJJJJJIJJJJJJJJJJJJJJJJKKIJJJJJJJHHJJJJJJJJJFFFFFEEEEEEDDDDDDCCCCCCBBBBBB ",
"BBBBBBCCCCCCDDDDDDEEEEEEFFFFFFJJJJJGHHJJJJIIJJJIKKJJJKLJJJJLKJJJKKJJJIIIJJHHHJJJJGGJJJFFFFEEEEEEDDDDDDCCCCCCBBBBBB ",
"BBBBBBCCCCCCDDDDDDEEEEEEFFFFFJJGGJJGHHJJJHIIJJJIKKJJKKLJJJLLKJJJKKIIIJJJJJHHHJJJGGGJJJFFFFEEEEEEDDDDDDCCCCCCBBBBBB ",
"BBBBBBCCCCCCDDDDDDEEEEEEFFFFFJJJJJJGHHJJJHIIJJJIKKJJKKLJJJLLKJJJKKIJJJJJJJHHHJJJGGGJJJFFFFEEEEEEDDDDDDCCCCCCBBBBBB ",
"BBBBBBCCCCCCDDDDDDEEEEEEFFFFJJJJJJJJHHJJJHIIJJJIKKJJKKLJJJLLKJJJKKJJJJIIJJHHHJJJGGGJJJFFFFEEEEEEDDDDDDCCCCCCBBBBBB ",
"BBBBBBCCCCCCDDDDDDEEEEEEFFFFJJGGGGJJHHJJJHIIJJJIKKJJKKLJJJLLKJJJKKJJJIIIJJHHHJJJGGGJJJFFFFEEEEEEDDDDDDCCCCCCBBBBBB ",
"BBBBBBCCCCCCDDDDDDEEEEEEFFFJJJJGGJJJJHJJJJIIJJJJKJJJJJKJJJJJKJJJJKJJJJJJJJJJHJJJJJJJJJFFFFEEEEEEDDDDDDCCCCCCBBBBBB ",
"BBBBBBCCCCCCDDDDDDEEEEEEFFFJJJJGJJJJJJJJJJIJJJJJJJJJJJJJJJJJJJJJJKJJJJJJJJJJHJJJJJJJJFFFFFEEEEEEDDDDDDCCCCCCBBBBBB ",
"BBBBBBCCCCCCDDDDDDEEEEEEFFFFFFGGGGGGHHHHHHIIIIIIKKKKKKKKKKKKKKKKKKIIIIIIHHHHHJJJGGGGFFFFFFEEEEEEDDDDDDCCCCCCBBBBBB ",
"BBBBBBCCCCCCDDDDDDEEEEEEFFFFFFGGGGGGHHHHHHIIIIIIKKKKKKKKKKKKKKKKKKIIIIIIHHHHHJJJGGGGFFFFFFEEEEEEDDDDDDCCCCCCBBBBBB ",
"BBBBBBCCCCCCDDDDDDEEEEEEFFFFFFGGGGGGHHHHHHIIIIIIIIIIIIIIIIIIIIIIIIIIIIIIHHHHHJJJJGGGFFFFFFEEEEEEDDDDDDCCCCCCBBBBBB ",
"BBBBBBCCCCCCDDDDDDEEEEEEFFFFFFGGGGGGHHHHHHIIIIIIIIIIIIIIIIIIIIIIIIIIIIIIHHHHJJJJJGGGFFFFFFEEEEEEDDDDDDCCCCCCBBBBBB ",
"BBBBBBCCCCCCDDDDDDEEEEEEFFFFFFGGGGGGHHHHHHIIIIIIIIIIIIIIIIIIIIIIIIIIIIIIHHHHHHGGGGGGFFFFFFEEEEEEDDDDDDCCCCCCBBBBBB ",
"BBBBBBCCCCCCDDDDDDEEEEEEFFFFFFGGGGGGHHHHHHIIIIIIIIIIIIIIIIIIIIIIIIIIIIIIHHHHHHGGGGGGFFFFFFEEEEEEDDDDDDCCCCCCBBBBBB ",
"BBBBBBCCCCCCDDDDDDEEEEEEFFFFFFGGGGGGHHHHHHHHHHHHHHHHHHHHHHHHHHHHHHHHHHHHHHHHHHGGGGGGFFFFFFEEEEEEDDDDDDCCCCCCBBBBBB ",
"BBBBBBCCCCCCDDDDDDEEEEEEFFFFFFGGGGGGHHHHHHHHHHHHHHHHHHHHHHHHHHHHHHHHHHHHHHHHHHGGGGGGFFFFFFEEEEEEDDDDDDCCCCCCBBBBBB ",
"BBBBBBCCCCCCDDDDDDEEEEEEFFFFFFGGGGGGHHHHHHHHHHHHHHHHHHHHHHHHHHHHHHHHHHHHHHHHHHGGGGGGFFFFFFEEEEEEDDDDDDCCCCCCBBBBBB ",
"BBBBBBCCCCCCDDDDDDEEEEEEFFFFFFGGGGGGHHHHHHHHHHHHHHHHHHHHHHHHHHHHHHHHHHHHHHHHHHGGGGGGFFFFFFEEEEEEDDDDDDCCCCCCBBBBBB ",
"BBBBBBCCCCCCDDDDDDEEEEEEFFFFFFGGGGGGGGGGGGGGGGGGGGGGGGGGGGGGGGGGGGGGGGGGGGGGGGGGGGGGFFFFFFEEEEEEDDDDDDCCCCCCBBBBBB ",
"BBBBBBCCCCCCDDDDDDEEEEEEFFFFFFGGGGGGGGGGGGGGGGGGGGGGGGGGGGGGGGGGGGGGGGGGGGGGGGGGGGGGFFFFFFEEEEEEDDDDDDCCCCCCBBBBBB ",
"BBBBBBCCCCCCDDDDDDEEEEEEFFFFFFGGGGGGGGGGGGGGGGGGGGGGGGGGGGGGGGGGGGGGGGGGGGGGGGGGGGGGFFFFFFEEEEEEDDDDDDCCCCCCBBBBBB ",
"BBBBBBCCCCCCDDDDDDEEEEEEFFFFFFGGGGGGGGGGGGGGGGGGGGGGGGGGGGGGGGGGGGGGGGGGGGGGGGGGGGGGFFFFFFEEEEEEDDDDDDCCCCCCBBBBBB ",
"BBBBBBCCCCCCDDDDDDEEEEEEFFFFFFFFFFFFFFFFFFFFFFFFFFFFFFFFFFFFFFFFFFFFFFFFFFFFFFFFFFFFFFFFFFEEEEEEDDDDDDCCCCCCBBBBBB ",
"BBBBBBCCCCCCDDDDDDEEEEEEFFFFFFFFFFFFFFFFFFFFFFFFFFFFFFFFFFFFFFFFFFFFFFFFFFFFFFFFFFFFFFFFFFEEEEEEDDDDDDCCCCCCBBBBBB ",
"BBBBBBCCCCCCDDDDDDEEEEEEFFFFFFFFFFFFFFFFFFFFFFFFFFFFFFFFFFFFFFFFFFFFFFFFFFFFFFFFFFFFFFFFFFEEEEEEDDDDDDCCCCCCBBBBBB ",
"BBBBBBCCCCCCDDDDDDEEEEEEFFFFFFFFFFFFFFFFFFFFFFFFFFFFFFFFFFFFFFFFFFFFFFFFFFFFFFFFFFFFFFFFFFEEEEEEDDDDDDCCCCCCBBBBBB ",
"BBBBBBCCCCCCDDDDDDEEEEEEFFFFFFFFFFFFFFFFFFFFFFFFFFFFFFFFFFFFFFFFFFFFFFFFFFFFFFFFFFFFFFFFFFEEEEEEDDDDDDCCCCCCBBBBBB ",
"BBBBBBCCCCCCDDDDDDEEEEEEEEEEEEEEEEEEEEEEEEEEEEEEEEEEEEEEEEEEEEEEEEEEEEEEEEEEEEEEEEEEEEEEEEEEEEEEDDDDDDCCCCCCBBBBBB ",
"BBBBBBCCCCCCDDDDDDEEEEEEEEEEEEEEEEEEEEEEEEEEEEEEEEEEEEEEEEEEEEEEEEEEEEEEEEEEEEEEEEEEEEEEEEEEEEEEDDDDDDCCCCCCBBBBBB ",
"BBBBBBCCCCCCDDDDDDEEEEEEEEEEEEEEEEEEEEEEEEEEEEEEEEEEEEEEEEEEEEEEEEEEEEEEEEEEEEEEEEEEEEEEEEEEEEEEDDDDDDCCCCCCBBBBBB ",
"BBBBBBCCCCCCDDDDDDEEEEEEEEEEEEEEEEEEEEEEEEEEEEEEEEEEEEEEEEEEEEEEEEEEEEEEEEEEEEEEEEEEEEEEEEEEEEEEDDDDDDCCCCCCBBBBBB ",
"BBBBBBCCCCCCDDDDDDDDDDDDDDDDDDDDDDDDDDDDDDDDDDDDDDDDDDDDDDDDDDDDDDDDDDDDDDDDDDDDDDDDDDDDDDDDDDDDDDDDDDCCCCCCBBBBBB ",
"BBBBBBCCCCCCDDDDDDDDDDDDDDDDDDDDDDDDDDDDDDDDDDDDDDDDDDDDDDDDDDDDDDDDDDDDDDDDDDDDDDDDDDDDDDDDDDDDDDDDDDCCCCCCBBBBBB ",
"BBBBBBCCCCCCDDDDDDDDDDDDDDDDDDDDDDDDDDDDDDDDDDDDDDDDDDDDDDDDDDDDDDDDDDDDDDDDDDDDDDDDDDDDDDDDDDDDDDDDDDCCCCCCBBBBBB ",
"BBBBBBCCCCCCDDDDDDDDDDDDDDDDDDDDDDDDDDDDDDDDDDDDDDDDDDDDDDDDDDDDDDDDDDDDDDDDDDDDDDDDDDDDDDDDDDDDDDDDDDCCCCCCBBBBBB ",
"BBBBBBCCCCCCCCCCCCCCCCCCCCCCCCCCCCCCCCCCCCCCCCCCCCCCCCCCCCCCCCCCCCCCCCCCCCCCCCCCCCCCCCCCCCCCCCCCCCCCCCCCCCCCBBBBBB ",
"BBBBBBCCCCCCCCCCCCCCCCCCCCCCCCCCCCCCCCCCCCCCCCCCCCCCCCCCCCCCCCCCCCCCCCCCCCCCCCCCCCCCCCCCCCCCCCCCCCCCCCCCCCCCBBBBBB ",
"BBBBBBCCCCCCCCCCCCCCCCCCCCCCCCCCCCCCCCCCCCCCCCCCCCCCCCCCCCCCCCCCCCCCCCCCCCCCCCCCCCCCCCCCCCCCCCCCCCCCCCCCCCCCBBBBBB ",
"BBBBBBCCCCCCCCCCCCCCCCCCCCCCCCCCCCCCCCCCCCCCCCCCCCCCCCCCCCCCCCCCCCCCCCCCCCCCCCCCCCCCCCCCCCCCCCCCCCCCCCCCCCCCBBBBBB ",
"BBBBBBBBBBBBBBBBBBBBBBBBBBBBBBBBBBBBBBBBBBBBBBBBBBBBBBBBBBBBBBBBBBBBBBBBBBBBBBBBBBBBBBBBBBBBBBBBBBBBBBBBBBBBBBBBBB ",
"BBBBBBBBBBBBBBBBBBBBBBBBBBBBBBBBBBBBBBBBBBBBBBBBBBBBBBBBBBBBBBBBBBBBBBBBBBBBBBBBBBBBBBBBBBBBBBBBBBBBBBBBBBBBBBBBBB ",
"BBBBBBBBBBBBBBBBBBBBBBBBBBBBBBBBBBBBBBBBBBBBBBBBBBBBBBBBBBBBBBBBBBBBBBBBBBBBBBBBBBBBBBBBBBBBBBBBBBBBBBBBBBBBBBBBBB ",
"BBBBBBBBBBBBBBBBBBBBBBBBBBBBBBBBBBBBBBBBBBBBBBBBBBBBBBBBBBBBBBBBBBBBBBBBBBBBBBBBBBBBBBBBBBBBBBBBBBBBBBBBBBBBBBBBBB ",
"                                                                                                                   ",
"                                                                                                                   ",
"                                                                                                                   ",
"                                                                                                                   ",
"                                                                                                                   ",
"                                                                                                                   ",
};
