#define text13_width 78
#define text13_height 32
#define text13_x_hot 0
#define text13_y_hot 0
static char text13_bits[] = {
   0x00, 0x00, 0x00, 0x00, 0x00, 0x00, 0x00, 0x00, 0x00, 0x00, 0x00, 0x00,
   0x00, 0x00, 0x00, 0x00, 0x00, 0x00, 0x00, 0x00, 0x00, 0x00, 0x00, 0x00,
   0x00, 0x00, 0x00, 0x00, 0x00, 0x00, 0x00, 0x00, 0x00, 0x00, 0x00, 0x00,
   0x00, 0x00, 0x00, 0x00, 0x00, 0x00, 0x00, 0x00, 0x00, 0x00, 0x00, 0x00,
   0x00, 0x00, 0x00, 0x00, 0x00, 0x00, 0x00, 0x00, 0x00, 0x00, 0x00, 0x00,
   0x00, 0x00, 0x00, 0x00, 0x00, 0x00, 0x00, 0x00, 0x00, 0x00, 0x00, 0x00,
   0x00, 0x00, 0x00, 0x00, 0x00, 0x00, 0x00, 0x00, 0x00, 0x00, 0x00, 0x00,
   0x00, 0x00, 0x00, 0x00, 0x00, 0x00, 0x00, 0xf0, 0x7f, 0x00, 0x00, 0x00,
   0x0c, 0x00, 0x00, 0x00, 0x00, 0x00, 0x03, 0x00, 0x00, 0x00, 0x0c, 0x00,
   0x00, 0x00, 0x00, 0x00, 0x03, 0x00, 0x00, 0x00, 0x0c, 0x00, 0x00, 0x00,
   0x00, 0x00, 0x03, 0x00, 0x00, 0x00, 0x0c, 0x00, 0x00, 0x00, 0x00, 0x00,
   0x03, 0x70, 0x20, 0x20, 0x3f, 0x00, 0x00, 0x00, 0x00, 0x00, 0x03, 0xf8,
   0x71, 0xb0, 0x3f, 0x00, 0x00, 0x00, 0x00, 0x00, 0x03, 0xde, 0xe1, 0x38,
   0x0c, 0x00, 0x00, 0x00, 0x00, 0x00, 0x03, 0x8f, 0xc3, 0x18, 0x0c, 0x00,
   0x00, 0x00, 0x00, 0x00, 0x03, 0xff, 0x83, 0x0d, 0x0c, 0x00, 0x00, 0x00,
   0x00, 0x00, 0x83, 0xff, 0x83, 0x0f, 0x0c, 0x00, 0x00, 0x00, 0x00, 0x00,
   0x83, 0x01, 0x00, 0x07, 0x0c, 0x00, 0x00, 0x00, 0x00, 0x00, 0x83, 0x03,
   0x80, 0x0f, 0x0c, 0x00, 0x00, 0x00, 0x00, 0x00, 0x03, 0x03, 0x82, 0x0d,
   0x0c, 0x00, 0x00, 0x00, 0x00, 0x00, 0x03, 0x0f, 0xc3, 0x18, 0x0c, 0x00,
   0x00, 0x00, 0x00, 0x00, 0x03, 0xfe, 0xe3, 0x38, 0x7c, 0x00, 0x00, 0x00,
   0x00, 0x00, 0x03, 0xf8, 0x71, 0x30, 0x78, 0x00, 0x00, 0x00, 0x00, 0x00,
   0x00, 0x00, 0x00, 0x00, 0x00, 0x00, 0x00, 0x00, 0x00, 0x00, 0x00, 0x00,
   0x00, 0x00, 0x00, 0x00, 0x00, 0x00, 0x00, 0x00, 0x00, 0x00, 0x00, 0x00,
   0x00, 0x00, 0x00, 0x00, 0x00, 0x00, 0x00, 0x00, 0x00, 0x00, 0x00, 0x00,
   0x00, 0x00, 0x00, 0x00, 0x00, 0x00, 0x00, 0x00, 0x00, 0x00, 0x00, 0x00,
   0x00, 0x00, 0x00, 0x00, 0x00, 0x00, 0x00, 0x00, 0x00, 0x00, 0x00, 0x00,
   0x00, 0x00, 0x00, 0x00, 0x00, 0x00, 0x00, 0x00,  };

