#define text34_width 78
#define text34_height 31
#define text34_x_hot 0
#define text34_y_hot 0
static char text34_bits[] = {
   0x00, 0x00, 0x00, 0x00, 0x00, 0x00, 0x00, 0x00, 0x00, 0x00, 0x00, 0x00,
   0x00, 0x00, 0x00, 0x00, 0x00, 0x00, 0x00, 0x00, 0x00, 0x00, 0x00, 0x00,
   0x00, 0x00, 0x00, 0x00, 0x00, 0x00, 0x00, 0x00, 0x00, 0x00, 0x00, 0x00,
   0x00, 0x00, 0x00, 0x00, 0x00, 0x00, 0x00, 0x00, 0x00, 0x00, 0x00, 0x00,
   0x00, 0x00, 0x00, 0x00, 0x00, 0x00, 0x00, 0x00, 0x00, 0x00, 0x00, 0x00,
   0x00, 0x00, 0x00, 0x00, 0x00, 0x00, 0x00, 0x00, 0x00, 0x00, 0x00, 0x00,
   0x00, 0x00, 0x00, 0x00, 0x00, 0x00, 0x00, 0x00, 0x00, 0xc0, 0xff, 0x07,
   0x00, 0x00, 0x00, 0x1c, 0x00, 0x00, 0x00, 0xc0, 0x39, 0x07, 0x00, 0x00,
   0x00, 0x1c, 0x00, 0x00, 0x00, 0xc0, 0x39, 0x07, 0x00, 0x00, 0x00, 0x1c,
   0x00, 0x00, 0x00, 0xc0, 0x38, 0x07, 0x00, 0x00, 0x00, 0x1c, 0x00, 0x00,
   0x00, 0xc0, 0x1c, 0x07, 0x07, 0x70, 0x8c, 0x3f, 0x00, 0x00, 0x00, 0x00,
   0x1c, 0xc0, 0x1f, 0x7c, 0xcf, 0x3f, 0x00, 0x00, 0x00, 0x00, 0x1c, 0xe0,
   0x1d, 0xfe, 0x0f, 0x0e, 0x00, 0x00, 0x00, 0x00, 0x1c, 0xe0, 0x18, 0xe6,
   0x0f, 0x07, 0x00, 0x00, 0x00, 0x00, 0x0e, 0x70, 0x18, 0xe7, 0x00, 0x07,
   0x00, 0x00, 0x00, 0x00, 0x0e, 0x30, 0x1c, 0xe0, 0x00, 0x07, 0x00, 0x00,
   0x00, 0x00, 0x0e, 0xf8, 0x1f, 0x60, 0x80, 0x07, 0x00, 0x00, 0x00, 0x00,
   0x0e, 0xf8, 0x07, 0x70, 0x88, 0x23, 0x00, 0x00, 0x00, 0x00, 0x07, 0x38,
   0x10, 0x72, 0x8c, 0x33, 0x00, 0x00, 0x00, 0x00, 0x07, 0x30, 0x1c, 0x7b,
   0x8e, 0x33, 0x00, 0x00, 0x00, 0xc0, 0x0f, 0xf0, 0x9f, 0xff, 0x87, 0x3f,
   0x00, 0x00, 0x00, 0xc0, 0x0f, 0xe0, 0x07, 0xef, 0x83, 0x1f, 0x00, 0x00,
   0x00, 0x00, 0x00, 0x00, 0x00, 0x00, 0x00, 0x00, 0x00, 0x00, 0x00, 0x00,
   0x00, 0x00, 0x00, 0x00, 0x00, 0x00, 0x00, 0x00, 0x00, 0x00, 0x00, 0x00,
   0x00, 0x00, 0x00, 0x00, 0x00, 0x00, 0x00, 0x00, 0x00, 0x00, 0x00, 0x00,
   0x00, 0x00, 0x00, 0x00, 0x00, 0x00, 0x00, 0x00, 0x00, 0x00, 0x00, 0x00,
   0x00, 0x00, 0x00, 0x00, 0x00, 0x00, 0x00, 0x00, 0x00, 0x00, 0x00, 0x00,
   0x00, 0x00, 0x00, 0x00, 0x00, 0x00, 0x00, 0x00, 0x00, 0x00,  };
