#define text3_width 60
#define text3_height 21
static char text3_bits[] = {
   0x00, 0x00, 0x00, 0x00, 0x00, 0x00, 0x00, 0x00, 0x00, 0x00, 0x00, 0x00,
   0x00, 0x00, 0x00, 0x00, 0x00, 0x00, 0x00, 0x00, 0x00, 0x00, 0x00, 0x00,
   0x00, 0x00, 0x00, 0x00, 0x00, 0x00, 0x00, 0x00, 0xe0, 0xff, 0xf8, 0xc7,
   0x80, 0xf1, 0x7f, 0x00, 0xe0, 0xff, 0xf8, 0xc7, 0xc1, 0xf1, 0x7f, 0x00,
   0xe0, 0xff, 0xf8, 0x83, 0xc1, 0xf0, 0x7f, 0x00, 0x00, 0x0e, 0x38, 0x00,
   0x63, 0x00, 0x07, 0x00, 0x00, 0x0e, 0x38, 0x00, 0x77, 0x00, 0x07, 0x00,
   0x00, 0x0e, 0x38, 0x00, 0x36, 0x00, 0x07, 0x00, 0x00, 0x0e, 0xf8, 0x01,
   0x1c, 0x00, 0x07, 0x00, 0x00, 0x0e, 0xf8, 0x01, 0x1c, 0x00, 0x07, 0x00,
   0x00, 0x0e, 0x38, 0x00, 0x36, 0x00, 0x07, 0x00, 0x00, 0x0e, 0x38, 0x00,
   0x77, 0x00, 0x07, 0x00, 0x00, 0x0e, 0x38, 0x00, 0x63, 0x00, 0x07, 0x00,
   0x00, 0x0e, 0xf8, 0x87, 0xc1, 0x00, 0x07, 0x00, 0x00, 0x0e, 0xf8, 0xc7,
   0xc1, 0x01, 0x07, 0x00, 0x00, 0x0e, 0xf8, 0xc7, 0x80, 0x01, 0x07, 0x00,
   0x00, 0x00, 0x00, 0x00, 0x00, 0x00, 0x00, 0x00, 0x00, 0x00, 0x00, 0x00,
   0x00, 0x00, 0x00, 0x00, 0x00, 0x00, 0x00, 0x00, 0x00, 0x00, 0x00, 0x00};
