#define text11_width 78
#define text11_height 30
#define text11_x_hot 0
#define text11_y_hot 0
static char text11_bits[] = {
   0x00, 0x00, 0x00, 0x00, 0x00, 0x00, 0x00, 0x00, 0x00, 0x00, 0x00, 0x00,
   0x00, 0x00, 0x00, 0x00, 0x00, 0x00, 0x00, 0x00, 0x00, 0x00, 0x00, 0x00,
   0x00, 0x00, 0x00, 0x00, 0x00, 0x00, 0x00, 0x00, 0x00, 0x00, 0x00, 0x00,
   0x00, 0x00, 0x00, 0x00, 0x00, 0x00, 0x00, 0x00, 0x00, 0x00, 0x00, 0x00,
   0x00, 0x00, 0x00, 0x00, 0x00, 0x00, 0x00, 0x00, 0x00, 0x00, 0x00, 0x00,
   0x00, 0x00, 0x00, 0x00, 0x00, 0x00, 0x00, 0x00, 0x00, 0x00, 0x00, 0x00,
   0x00, 0x00, 0x00, 0x00, 0x00, 0x00, 0x00, 0x00, 0x00, 0xf0, 0x7f, 0x00,
   0x00, 0x00, 0x08, 0x00, 0x00, 0x00, 0x00, 0x00, 0x02, 0x00, 0x00, 0x00,
   0x08, 0x00, 0x00, 0x00, 0x00, 0x00, 0x02, 0x00, 0x00, 0x00, 0x08, 0x00,
   0x00, 0x00, 0x00, 0x00, 0x02, 0x00, 0x00, 0x00, 0x08, 0x00, 0x00, 0x00,
   0x00, 0x00, 0x02, 0x00, 0x00, 0x00, 0x08, 0x00, 0x00, 0x00, 0x00, 0x00,
   0x02, 0xf0, 0x20, 0x20, 0x3f, 0x00, 0x00, 0x00, 0x00, 0x00, 0x02, 0x8c,
   0x41, 0x10, 0x08, 0x00, 0x00, 0x00, 0x00, 0x00, 0x02, 0x06, 0xc1, 0x18,
   0x08, 0x00, 0x00, 0x00, 0x00, 0x00, 0x02, 0x03, 0x82, 0x0d, 0x08, 0x00,
   0x00, 0x00, 0x00, 0x00, 0x02, 0xff, 0x03, 0x05, 0x08, 0x00, 0x00, 0x00,
   0x00, 0x00, 0x02, 0x01, 0x00, 0x02, 0x08, 0x00, 0x00, 0x00, 0x00, 0x00,
   0x02, 0x01, 0x00, 0x05, 0x08, 0x00, 0x00, 0x00, 0x00, 0x00, 0x02, 0x03,
   0x80, 0x0d, 0x08, 0x00, 0x00, 0x00, 0x00, 0x00, 0x02, 0x06, 0xc2, 0x18,
   0x08, 0x00, 0x00, 0x00, 0x00, 0x00, 0x02, 0x8c, 0x41, 0x10, 0x18, 0x00,
   0x00, 0x00, 0x00, 0x00, 0x02, 0xf0, 0x20, 0x20, 0x70, 0x00, 0x00, 0x00,
   0x00, 0x00, 0x00, 0x00, 0x00, 0x00, 0x00, 0x00, 0x00, 0x00, 0x00, 0x00,
   0x00, 0x00, 0x00, 0x00, 0x00, 0x00, 0x00, 0x00, 0x00, 0x00, 0x00, 0x00,
   0x00, 0x00, 0x00, 0x00, 0x00, 0x00, 0x00, 0x00, 0x00, 0x00, 0x00, 0x00,
   0x00, 0x00, 0x00, 0x00, 0x00, 0x00, 0x00, 0x00, 0x00, 0x00, 0x00, 0x00,
   0x00, 0x00, 0x00, 0x00, 0x00, 0x00, 0x00, 0x00, 0x00, 0x00, 0x00, 0x00,
    };
