#define text33_width 77
#define text33_height 32
#define text33_x_hot 0
#define text33_y_hot 0
static char text33_bits[] = {
   0xff, 0xff, 0xff, 0xff, 0xff, 0xff, 0xff, 0xff, 0xff, 0x1f, 0x00, 0x00,
   0x00, 0x00, 0x00, 0x00, 0x00, 0x00, 0x00, 0x00, 0x00, 0x00, 0x00, 0x00,
   0x00, 0x00, 0x00, 0x00, 0x00, 0x00, 0x00, 0x00, 0x00, 0x00, 0x00, 0x00,
   0x00, 0x00, 0x00, 0x00, 0x00, 0x00, 0x00, 0x00, 0x00, 0x00, 0x00, 0x00,
   0x00, 0x00, 0x00, 0x00, 0x00, 0x00, 0x00, 0x00, 0x00, 0x00, 0x00, 0x00,
   0x00, 0x00, 0x00, 0x00, 0x00, 0x00, 0x00, 0x00, 0x00, 0x00, 0x00, 0x00,
   0x00, 0x00, 0x00, 0x00, 0x00, 0x00, 0x00, 0x00, 0x00, 0x00, 0x00, 0x00,
   0x00, 0x00, 0x00, 0x00, 0x00, 0x00, 0x00, 0xe0, 0xff, 0x03, 0x00, 0x00,
   0x00, 0x0e, 0x00, 0x00, 0x00, 0xe0, 0x9c, 0x03, 0x00, 0x00, 0x00, 0x0e,
   0x00, 0x00, 0x00, 0xe0, 0x9c, 0x03, 0x00, 0x00, 0x00, 0x0e, 0x00, 0x00,
   0x00, 0x60, 0x9c, 0x03, 0x00, 0x00, 0x00, 0x0e, 0x00, 0x00, 0x00, 0x60,
   0x8e, 0x83, 0x03, 0x38, 0xc6, 0x1f, 0x00, 0x00, 0x00, 0x00, 0x0e, 0xe0,
   0x0f, 0xbe, 0xe7, 0x1f, 0x00, 0x00, 0x00, 0x00, 0x0e, 0xf0, 0x0e, 0xff,
   0x07, 0x07, 0x00, 0x00, 0x00, 0x00, 0x0e, 0x70, 0x0c, 0xf3, 0x87, 0x03,
   0x00, 0x00, 0x00, 0x00, 0x07, 0x38, 0x8c, 0x73, 0x80, 0x03, 0x00, 0x00,
   0x00, 0x00, 0x07, 0x18, 0x0e, 0x70, 0x80, 0x03, 0x00, 0x00, 0x00, 0x00,
   0x07, 0xfc, 0x0f, 0x30, 0xc0, 0x03, 0x00, 0x00, 0x00, 0x00, 0x07, 0xfc,
   0x03, 0x38, 0xc4, 0x11, 0x00, 0x00, 0x00, 0x80, 0x03, 0x1c, 0x08, 0x39,
   0xc6, 0x19, 0x00, 0x00, 0x00, 0x80, 0x03, 0x18, 0x8e, 0x3d, 0xc7, 0x19,
   0x00, 0x00, 0x00, 0xe0, 0x07, 0xf8, 0xcf, 0xff, 0xc3, 0x1f, 0x00, 0x00,
   0x00, 0xe0, 0x07, 0xf0, 0x83, 0xf7, 0xc1, 0x0f, 0x00, 0x00, 0x00, 0x00,
   0x00, 0x00, 0x00, 0x00, 0x00, 0x00, 0x00, 0x00, 0x00, 0x00, 0x00, 0x00,
   0x00, 0x00, 0x00, 0x00, 0x00, 0x00, 0x00, 0x00, 0x00, 0x00, 0x00, 0x00,
   0x00, 0x00, 0x00, 0x00, 0x00, 0x00, 0x00, 0x00, 0x00, 0x00, 0x00, 0x00,
   0x00, 0x00, 0x00, 0x00, 0x00, 0x00, 0x00, 0x00, 0x00, 0x00, 0x00, 0x00,
   0x00, 0x00, 0x00, 0x00, 0x00, 0x00, 0x00, 0x00, 0x00, 0x00, 0x00, 0x00,
   0x00, 0x00, 0x00, 0x00, 0x00, 0x00, 0x00, 0x00,  };
