#define text14_width 77
#define text14_height 31
#define text14_x_hot 0
#define text14_y_hot 0
static char text14_bits[] = {
   0x00, 0x00, 0x00, 0x00, 0x00, 0x00, 0x00, 0x00, 0x00, 0x00, 0x00, 0x00,
   0x00, 0x00, 0x00, 0x00, 0x00, 0x00, 0x00, 0x00, 0x00, 0x00, 0x00, 0x00,
   0x00, 0x00, 0x00, 0x00, 0x00, 0x00, 0x00, 0x00, 0x00, 0x00, 0x00, 0x00,
   0x00, 0x00, 0x00, 0x00, 0x00, 0x00, 0x00, 0x00, 0x00, 0x00, 0x00, 0x00,
   0x00, 0x00, 0x00, 0x00, 0x00, 0x00, 0x00, 0x00, 0x00, 0x00, 0x00, 0x00,
   0x00, 0x00, 0x00, 0x00, 0x00, 0x00, 0x00, 0x00, 0x00, 0x00, 0x00, 0x00,
   0x00, 0x00, 0x00, 0x00, 0x00, 0x00, 0x00, 0x00, 0x00, 0xf8, 0x3f, 0x00,
   0x00, 0x00, 0x06, 0x00, 0x00, 0x00, 0x00, 0x80, 0x01, 0x00, 0x00, 0x00,
   0x06, 0x00, 0x00, 0x00, 0x00, 0x80, 0x01, 0x00, 0x00, 0x00, 0x06, 0x00,
   0x00, 0x00, 0x00, 0x80, 0x01, 0x00, 0x00, 0x00, 0x06, 0x00, 0x00, 0x00,
   0x00, 0x80, 0x01, 0x38, 0x10, 0x90, 0x1f, 0x00, 0x00, 0x00, 0x00, 0x80,
   0x01, 0xfc, 0x38, 0xd8, 0x1f, 0x00, 0x00, 0x00, 0x00, 0x80, 0x01, 0xef,
   0x70, 0x1c, 0x06, 0x00, 0x00, 0x00, 0x00, 0x80, 0x81, 0xc7, 0x61, 0x0c,
   0x06, 0x00, 0x00, 0x00, 0x00, 0x80, 0x81, 0xff, 0xc1, 0x06, 0x06, 0x00,
   0x00, 0x00, 0x00, 0x80, 0xc1, 0xff, 0xc1, 0x07, 0x06, 0x00, 0x00, 0x00,
   0x00, 0x80, 0xc1, 0x00, 0x80, 0x03, 0x06, 0x00, 0x00, 0x00, 0x00, 0x80,
   0xc1, 0x01, 0xc0, 0x07, 0x06, 0x00, 0x00, 0x00, 0x00, 0x80, 0x81, 0x01,
   0xc1, 0x06, 0x06, 0x00, 0x00, 0x00, 0x00, 0x80, 0x81, 0x87, 0x61, 0x0c,
   0x06, 0x00, 0x00, 0x00, 0x00, 0x80, 0x01, 0xff, 0x71, 0x1c, 0x3e, 0x00,
   0x00, 0x00, 0x00, 0x80, 0x01, 0xfc, 0x38, 0x18, 0x3c, 0x00, 0x00, 0x00,
   0x00, 0x00, 0x00, 0x00, 0x00, 0x00, 0x00, 0x00, 0x00, 0x00, 0x00, 0x00,
   0x00, 0x00, 0x00, 0x00, 0x00, 0x00, 0x00, 0x00, 0x00, 0x00, 0x00, 0x00,
   0x00, 0x00, 0x00, 0x00, 0x00, 0x00, 0x00, 0x00, 0x00, 0x00, 0x00, 0x00,
   0x00, 0x00, 0x00, 0x00, 0x00, 0x00, 0x00, 0x00, 0x00, 0x00, 0x00, 0x00,
   0x00, 0x00, 0x00, 0x00, 0x00, 0x00, 0x00, 0x00, 0x00, 0x00, 0x00, 0x00,
   0x00, 0x00, 0x00, 0x00, 0x00, 0x00, 0x00, 0x00, 0x00, 0x00,  };
