#define text35_width 77
#define text35_height 31
#define text35_x_hot 0
#define text35_y_hot 0
static char text35_bits[] = {
   0x00, 0x00, 0x00, 0x00, 0x00, 0x00, 0x00, 0x00, 0x00, 0x00, 0x00, 0x00,
   0x00, 0x00, 0x00, 0x00, 0x00, 0x00, 0x00, 0x00, 0x00, 0x00, 0x00, 0x00,
   0x00, 0x00, 0x00, 0x00, 0x00, 0x00, 0x00, 0x00, 0x00, 0x00, 0x00, 0x00,
   0x00, 0x00, 0x00, 0x00, 0x00, 0x00, 0x00, 0x00, 0x00, 0x00, 0x00, 0x00,
   0x00, 0x00, 0x00, 0x00, 0x00, 0x00, 0x00, 0x00, 0x00, 0x00, 0x00, 0x00,
   0x00, 0x00, 0x00, 0x00, 0x00, 0x00, 0x00, 0x00, 0x00, 0x00, 0x00, 0x00,
   0x00, 0x00, 0x00, 0x00, 0x00, 0x00, 0x00, 0x00, 0x00, 0xe0, 0xff, 0x07,
   0x00, 0x00, 0x00, 0x1e, 0x00, 0x00, 0x00, 0xe0, 0xff, 0x07, 0x00, 0x00,
   0x00, 0x1e, 0x00, 0x00, 0x00, 0xe0, 0xbe, 0x07, 0x00, 0x00, 0x00, 0x0f,
   0x00, 0x00, 0x00, 0xe0, 0x9e, 0x03, 0x00, 0x00, 0x00, 0x0f, 0x00, 0x00,
   0x00, 0x60, 0x9e, 0xc3, 0x07, 0x7c, 0xef, 0x1f, 0x00, 0x00, 0x00, 0x60,
   0x9e, 0xf3, 0x1f, 0xff, 0xef, 0x1f, 0x00, 0x00, 0x00, 0x00, 0x0f, 0xf0,
   0x1f, 0xff, 0xef, 0x1f, 0x00, 0x00, 0x00, 0x00, 0x0f, 0xf8, 0x9c, 0xf7,
   0x8f, 0x07, 0x00, 0x00, 0x00, 0x00, 0x0f, 0x78, 0x9c, 0xf3, 0x8f, 0x07,
   0x00, 0x00, 0x00, 0x00, 0x0f, 0x3c, 0x9f, 0x73, 0xc0, 0x03, 0x00, 0x00,
   0x00, 0x80, 0x07, 0xfc, 0x1f, 0x78, 0xc0, 0x03, 0x00, 0x00, 0x00, 0x80,
   0x07, 0xfc, 0x07, 0x78, 0xce, 0x1b, 0x00, 0x00, 0x00, 0x80, 0x07, 0xfc,
   0x9d, 0x7f, 0xcf, 0x19, 0x00, 0x00, 0x00, 0xc0, 0x07, 0x3c, 0xdf, 0xff,
   0xcf, 0x1d, 0x00, 0x00, 0x00, 0xe0, 0x0f, 0xf8, 0xdf, 0xff, 0xc7, 0x1f,
   0x00, 0x00, 0x00, 0xe0, 0x0f, 0xf8, 0xc7, 0xff, 0xc3, 0x1f, 0x00, 0x00,
   0x00, 0x00, 0x00, 0x00, 0x00, 0x00, 0x00, 0x00, 0x00, 0x00, 0x00, 0x00,
   0x00, 0x00, 0x00, 0x00, 0x00, 0x00, 0x00, 0x00, 0x00, 0x00, 0x00, 0x00,
   0x00, 0x00, 0x00, 0x00, 0x00, 0x00, 0x00, 0x00, 0x00, 0x00, 0x00, 0x00,
   0x00, 0x00, 0x00, 0x00, 0x00, 0x00, 0x00, 0x00, 0x00, 0x00, 0x00, 0x00,
   0x00, 0x00, 0x00, 0x00, 0x00, 0x00, 0x00, 0x00, 0x00, 0x00, 0x00, 0x00,
   0x00, 0x00, 0x00, 0x00, 0x00, 0x00, 0x00, 0x00, 0x00, 0x00,  };
