#define text31_width 79
#define text31_height 30
#define text31_x_hot 0
#define text31_y_hot 0
static char text31_bits[] = {
   0x00, 0x00, 0x00, 0x00, 0x00, 0x00, 0x00, 0x00, 0x00, 0x00, 0x00, 0x00,
   0x00, 0x00, 0x00, 0x00, 0x00, 0x00, 0x00, 0x00, 0x00, 0x00, 0x00, 0x00,
   0x00, 0x00, 0x00, 0x00, 0x00, 0x00, 0x00, 0x00, 0x00, 0x00, 0x00, 0x00,
   0x00, 0x00, 0x00, 0x00, 0x00, 0x00, 0x00, 0x00, 0x00, 0x00, 0x00, 0x00,
   0x00, 0x00, 0x00, 0x00, 0x00, 0x00, 0x00, 0x00, 0x00, 0x00, 0x00, 0x00,
   0x00, 0x00, 0x00, 0x00, 0x00, 0x00, 0x00, 0x00, 0x00, 0x00, 0x00, 0x00,
   0x00, 0x00, 0x00, 0x00, 0x00, 0x00, 0x00, 0x00, 0x00, 0x80, 0xff, 0x07,
   0x00, 0x00, 0x00, 0x18, 0x00, 0x00, 0x00, 0x80, 0x31, 0x06, 0x00, 0x00,
   0x00, 0x18, 0x00, 0x00, 0x00, 0xc0, 0x18, 0x06, 0x00, 0x00, 0x00, 0x0c,
   0x00, 0x00, 0x00, 0xc0, 0x18, 0x02, 0x00, 0x00, 0x00, 0x0c, 0x00, 0x00,
   0x00, 0x40, 0x18, 0x02, 0x00, 0x00, 0x00, 0x0c, 0x00, 0x00, 0x00, 0x00,
   0x18, 0x80, 0x0f, 0x78, 0x8e, 0x3f, 0x00, 0x00, 0x00, 0x00, 0x0c, 0xc0,
   0x18, 0x6c, 0x0b, 0x06, 0x00, 0x00, 0x00, 0x00, 0x0c, 0x60, 0x10, 0xc6,
   0x0c, 0x06, 0x00, 0x00, 0x00, 0x00, 0x0c, 0x20, 0x10, 0xc2, 0x00, 0x06,
   0x00, 0x00, 0x00, 0x00, 0x0c, 0x30, 0x18, 0x40, 0x00, 0x03, 0x00, 0x00,
   0x00, 0x00, 0x06, 0x30, 0x0e, 0x60, 0x00, 0x03, 0x00, 0x00, 0x00, 0x00,
   0x06, 0xf0, 0x03, 0x60, 0x00, 0x03, 0x00, 0x00, 0x00, 0x00, 0x06, 0x30,
   0x00, 0x70, 0x08, 0x21, 0x00, 0x00, 0x00, 0x00, 0x06, 0x30, 0x18, 0x72,
   0x04, 0x31, 0x00, 0x00, 0x00, 0x00, 0x03, 0x60, 0x0e, 0x6f, 0x02, 0x19,
   0x00, 0x00, 0x00, 0xc0, 0x0f, 0xc0, 0x03, 0xc6, 0x01, 0x0f, 0x00, 0x00,
   0x00, 0x00, 0x00, 0x00, 0x00, 0x00, 0x00, 0x00, 0x00, 0x00, 0x00, 0x00,
   0x00, 0x00, 0x00, 0x00, 0x00, 0x00, 0x00, 0x00, 0x00, 0x00, 0x00, 0x00,
   0x00, 0x00, 0x00, 0x00, 0x00, 0x00, 0x00, 0x00, 0x00, 0x00, 0x00, 0x00,
   0x00, 0x00, 0x00, 0x00, 0x00, 0x00, 0x00, 0x00, 0x00, 0x00, 0x00, 0x00,
   0x00, 0x00, 0x00, 0x00, 0x00, 0x00, 0x00, 0x00, 0x00, 0x00, 0x00, 0x00,
    };
