#define text45_width 79
#define text45_height 31
#define text45_x_hot 0
#define text45_y_hot 0
static char text45_bits[] = {
   0x00, 0x00, 0x00, 0x00, 0x00, 0x00, 0x00, 0x00, 0x00, 0x00, 0x00, 0x00,
   0x00, 0x00, 0x00, 0x00, 0x00, 0x00, 0x00, 0x00, 0x00, 0x00, 0x00, 0x00,
   0x00, 0x00, 0x00, 0x00, 0x00, 0x00, 0x00, 0x00, 0x00, 0x00, 0x00, 0x00,
   0x00, 0x00, 0x00, 0x00, 0x00, 0x00, 0x00, 0x00, 0x00, 0x00, 0x00, 0x00,
   0x00, 0x00, 0x00, 0x00, 0x00, 0x00, 0x00, 0x00, 0x00, 0x00, 0x00, 0x00,
   0x00, 0x00, 0x00, 0x00, 0x00, 0x00, 0x00, 0x00, 0x00, 0x00, 0x00, 0x00,
   0x00, 0x00, 0x00, 0x00, 0x00, 0x00, 0x00, 0x00, 0x00, 0x80, 0xff, 0x03,
   0x00, 0x80, 0x03, 0x00, 0x00, 0x00, 0x00, 0xc0, 0xff, 0x03, 0x00, 0x80,
   0x03, 0x00, 0x00, 0x00, 0x00, 0xc0, 0xe3, 0x01, 0x00, 0xc0, 0x03, 0x00,
   0x00, 0x00, 0x00, 0xe0, 0xef, 0x00, 0x00, 0xc0, 0x03, 0x00, 0x00, 0x00,
   0x00, 0xe0, 0xfe, 0x00, 0x00, 0xc0, 0x03, 0x00, 0x00, 0x00, 0x00, 0xe0,
   0xff, 0x00, 0x00, 0xf0, 0x03, 0x00, 0x00, 0x00, 0x00, 0xe0, 0x7f, 0x00,
   0x00, 0xf0, 0x03, 0x00, 0x00, 0x00, 0x00, 0xc0, 0x7f, 0x00, 0x00, 0xf0,
   0x03, 0x00, 0x00, 0x00, 0x00, 0xc0, 0x7b, 0x7e, 0xfe, 0xf7, 0x01, 0x00,
   0x00, 0x00, 0x00, 0x00, 0x3c, 0x7f, 0xff, 0xf7, 0x00, 0x00, 0x00, 0x00,
   0x00, 0x00, 0xbc, 0xff, 0xff, 0xff, 0x03, 0x00, 0x00, 0x00, 0x00, 0x30,
   0x9e, 0xff, 0xf7, 0xff, 0x03, 0x00, 0x00, 0x00, 0x00, 0x70, 0x9e, 0xff,
   0xfb, 0x7c, 0x03, 0x00, 0x00, 0x00, 0x00, 0x70, 0x9f, 0xff, 0x7f, 0xfe,
   0x03, 0x00, 0x00, 0x00, 0x00, 0xf0, 0x9f, 0xff, 0xff, 0xff, 0x03, 0x00,
   0x00, 0x00, 0x00, 0xf0, 0x07, 0xff, 0xff, 0xff, 0x03, 0x00, 0x00, 0x00,
   0x00, 0x00, 0x00, 0x00, 0x00, 0x00, 0x00, 0x00, 0x00, 0x00, 0x00, 0x00,
   0x00, 0x00, 0x00, 0x00, 0x00, 0x00, 0x00, 0x00, 0x00, 0x00, 0x00, 0x00,
   0x00, 0x00, 0x00, 0x00, 0x00, 0x00, 0x00, 0x00, 0x00, 0x00, 0x00, 0x00,
   0x00, 0x00, 0x00, 0x00, 0x00, 0x00, 0x00, 0x00, 0x00, 0x00, 0x00, 0x00,
   0x00, 0x00, 0x00, 0x00, 0x00, 0x00, 0x00, 0x00, 0x00, 0x00, 0x00, 0x00,
   0x00, 0x00, 0x00, 0x00, 0x00, 0x00, 0x00, 0x00, 0x00, 0x00,  };
