#define text22_width 78
#define text22_height 32
#define text22_x_hot 0
#define text22_y_hot 0
static char text22_bits[] = {
   0xff, 0xff, 0xff, 0xff, 0xff, 0xff, 0xff, 0xff, 0xff, 0x3f, 0x00, 0x00,
   0x00, 0x00, 0x00, 0x00, 0x00, 0x00, 0x00, 0x00, 0x00, 0x00, 0x00, 0x00,
   0x00, 0x00, 0x00, 0x00, 0x00, 0x00, 0x00, 0x00, 0x00, 0x00, 0x00, 0x00,
   0x00, 0x00, 0x00, 0x00, 0x00, 0x00, 0x00, 0x00, 0x00, 0x00, 0x00, 0x00,
   0x00, 0x00, 0x00, 0x00, 0x00, 0x00, 0x00, 0x00, 0x00, 0x00, 0x00, 0x00,
   0x00, 0x00, 0x00, 0x00, 0x00, 0x00, 0x00, 0x00, 0x00, 0x00, 0x00, 0x00,
   0x00, 0x00, 0x00, 0x00, 0x00, 0x00, 0x00, 0x00, 0x00, 0x00, 0x00, 0x00,
   0x00, 0x00, 0x00, 0x00, 0x00, 0x00, 0x00, 0xf0, 0xff, 0x00, 0x00, 0x00,
   0x00, 0x01, 0x00, 0x00, 0x00, 0x30, 0xc6, 0x00, 0x00, 0x00, 0x00, 0x01,
   0x00, 0x00, 0x00, 0x30, 0xc6, 0x00, 0x00, 0x00, 0x00, 0x01, 0x00, 0x00,
   0x00, 0x10, 0x86, 0x00, 0x00, 0x00, 0x00, 0x01, 0x00, 0x00, 0x00, 0x10,
   0x86, 0x00, 0x00, 0x00, 0x00, 0x01, 0x00, 0x00, 0x00, 0x00, 0x06, 0xc0,
   0x83, 0xdf, 0xef, 0x0f, 0x00, 0x00, 0x00, 0x00, 0x06, 0x70, 0x04, 0x04,
   0x01, 0x01, 0x00, 0x00, 0x00, 0x00, 0x06, 0x18, 0x08, 0x8c, 0x01, 0x01,
   0x00, 0x00, 0x00, 0x00, 0x06, 0x18, 0x18, 0xd8, 0x00, 0x01, 0x00, 0x00,
   0x00, 0x00, 0x06, 0xf8, 0x1f, 0x50, 0x00, 0x01, 0x00, 0x00, 0x00, 0x00,
   0x06, 0x08, 0x00, 0x30, 0x00, 0x01, 0x00, 0x00, 0x00, 0x00, 0x06, 0x08,
   0x00, 0x70, 0x00, 0x01, 0x00, 0x00, 0x00, 0x00, 0x06, 0x18, 0x00, 0xd8,
   0x00, 0x01, 0x00, 0x00, 0x00, 0x00, 0x06, 0x18, 0x18, 0xcc, 0x01, 0x23,
   0x00, 0x00, 0x00, 0x00, 0x06, 0x70, 0x0e, 0x84, 0x01, 0x33, 0x00, 0x00,
   0x00, 0x80, 0x1f, 0xc0, 0x83, 0xdf, 0x0f, 0x1e, 0x00, 0x00, 0x00, 0x00,
   0x00, 0x00, 0x00, 0x00, 0x00, 0x00, 0x00, 0x00, 0x00, 0x00, 0x00, 0x00,
   0x00, 0x00, 0x00, 0x00, 0x00, 0x00, 0x00, 0x00, 0x00, 0x00, 0x00, 0x00,
   0x00, 0x00, 0x00, 0x00, 0x00, 0x00, 0x00, 0x00, 0x00, 0x00, 0x00, 0x00,
   0x00, 0x00, 0x00, 0x00, 0x00, 0x00, 0x00, 0x00, 0x00, 0x00, 0x00, 0x00,
   0x00, 0x00, 0x00, 0x00, 0x00, 0x00, 0x00, 0x00, 0x00, 0x00, 0x00, 0x00,
   0x00, 0x00, 0x00, 0x00, 0x00, 0x00, 0x00, 0x00,  };
