#define text44_width 79
#define text44_height 31
#define text44_x_hot 0
#define text44_y_hot 0
static char text44_bits[] = {
   0xff, 0xff, 0xff, 0xff, 0xff, 0xff, 0xff, 0xff, 0xff, 0x7f, 0x00, 0x00,
   0x00, 0x00, 0x00, 0x00, 0x00, 0x00, 0x00, 0x00, 0x00, 0x00, 0x00, 0x00,
   0x00, 0x00, 0x00, 0x00, 0x00, 0x00, 0x00, 0x00, 0x00, 0x00, 0x00, 0x00,
   0x00, 0x00, 0x00, 0x00, 0x00, 0x00, 0x00, 0x00, 0x00, 0x00, 0x00, 0x00,
   0x00, 0x00, 0x00, 0x00, 0x00, 0x00, 0x00, 0x00, 0x00, 0x00, 0x00, 0x00,
   0x00, 0x00, 0x00, 0x00, 0x00, 0x00, 0x00, 0x00, 0x00, 0x00, 0x00, 0x00,
   0x00, 0x00, 0x00, 0x00, 0x00, 0x00, 0x00, 0x00, 0x00, 0x00, 0x00, 0x00,
   0x00, 0x00, 0x00, 0x00, 0x00, 0x00, 0x00, 0x00, 0xff, 0x01, 0x00, 0x80,
   0x03, 0x00, 0x00, 0x00, 0x00, 0x80, 0xff, 0x01, 0x00, 0x80, 0x03, 0x00,
   0x00, 0x00, 0x00, 0xc0, 0xe1, 0x00, 0x00, 0x80, 0x03, 0x00, 0x00, 0x00,
   0x00, 0xc0, 0x64, 0x00, 0x00, 0x80, 0x03, 0x00, 0x00, 0x00, 0x00, 0xe0,
   0x66, 0x00, 0x00, 0xc0, 0x01, 0x00, 0x00, 0x00, 0x00, 0xe0, 0x76, 0x00,
   0x00, 0xe0, 0x03, 0x00, 0x00, 0x00, 0x00, 0xc0, 0x77, 0x00, 0x00, 0xf0,
   0x03, 0x00, 0x00, 0x00, 0x00, 0xc0, 0x3b, 0x00, 0x00, 0xe0, 0x00, 0x00,
   0x00, 0x00, 0x00, 0x00, 0x38, 0x3c, 0xbc, 0xe3, 0x00, 0x00, 0x00, 0x00,
   0x00, 0x00, 0x38, 0x3e, 0xfe, 0xf3, 0x00, 0x00, 0x00, 0x00, 0x00, 0x00,
   0x18, 0x3f, 0xf7, 0x73, 0x02, 0x00, 0x00, 0x00, 0x00, 0x10, 0x9c, 0xb7,
   0xf3, 0x78, 0x03, 0x00, 0x00, 0x00, 0x00, 0x30, 0x8e, 0xbb, 0x71, 0x78,
   0x03, 0x00, 0x00, 0x00, 0x00, 0x30, 0x8e, 0x9f, 0x7f, 0xfc, 0x03, 0x00,
   0x00, 0x00, 0x00, 0xf0, 0x0f, 0xff, 0xff, 0xff, 0x03, 0x00, 0x00, 0x00,
   0x00, 0xf0, 0x03, 0xfe, 0xfe, 0xf7, 0x00, 0x00, 0x00, 0x00, 0x00, 0x00,
   0x00, 0x00, 0x00, 0x00, 0x00, 0x00, 0x00, 0x00, 0x00, 0x00, 0x00, 0x00,
   0x00, 0x00, 0x00, 0x00, 0x00, 0x00, 0x00, 0x00, 0x00, 0x00, 0x00, 0x00,
   0x00, 0x00, 0x00, 0x00, 0x00, 0x00, 0x00, 0x00, 0x00, 0x00, 0x00, 0x00,
   0x00, 0x00, 0x00, 0x00, 0x00, 0x00, 0x00, 0x00, 0x00, 0x00, 0x00, 0x00,
   0x00, 0x00, 0x00, 0x00, 0x00, 0x00, 0x00, 0x00, 0x00, 0x00,  };
