#define text25_width 77
#define text25_height 31
#define text25_x_hot 0
#define text25_y_hot 0
static char text25_bits[] = {
   0x00, 0x00, 0x00, 0x00, 0x00, 0x00, 0x00, 0x00, 0x00, 0x00, 0x00, 0x00,
   0x00, 0x00, 0x00, 0x00, 0x00, 0x00, 0x00, 0x00, 0x00, 0x00, 0x00, 0x00,
   0x00, 0x00, 0x00, 0x00, 0x00, 0x00, 0x00, 0x00, 0x00, 0x00, 0x00, 0x00,
   0x00, 0x00, 0x00, 0x00, 0x00, 0x00, 0x00, 0x00, 0x00, 0x00, 0x00, 0x00,
   0x00, 0x00, 0x00, 0x00, 0x00, 0x00, 0x00, 0x00, 0x00, 0x00, 0x00, 0x00,
   0x00, 0x00, 0x00, 0x00, 0x00, 0x00, 0x00, 0x00, 0x00, 0x00, 0x00, 0x00,
   0x00, 0x00, 0x00, 0x00, 0x00, 0x00, 0x00, 0x00, 0x00, 0xf0, 0xff, 0x01,
   0x00, 0x00, 0x80, 0x03, 0x00, 0x00, 0x00, 0xf0, 0xff, 0x01, 0x00, 0x00,
   0x80, 0x03, 0x00, 0x00, 0x00, 0x70, 0xef, 0x01, 0x00, 0x00, 0x80, 0x03,
   0x00, 0x00, 0x00, 0x30, 0xcf, 0x01, 0x00, 0x00, 0x80, 0x03, 0x00, 0x00,
   0x00, 0x30, 0xcf, 0xc1, 0xc7, 0xff, 0xff, 0x1f, 0x00, 0x00, 0x00, 0x30,
   0xcf, 0xf1, 0xcf, 0xff, 0xff, 0x1f, 0x00, 0x00, 0x00, 0x00, 0x0f, 0xfc,
   0xdf, 0xff, 0xff, 0x1f, 0x00, 0x00, 0x00, 0x00, 0x0f, 0x7c, 0x3e, 0xde,
   0x83, 0x03, 0x00, 0x00, 0x00, 0x00, 0x0f, 0xfc, 0x3f, 0xfc, 0x81, 0x03,
   0x00, 0x00, 0x00, 0x00, 0x0f, 0xfc, 0x3f, 0xfc, 0x80, 0x03, 0x00, 0x00,
   0x00, 0x00, 0x0f, 0xfc, 0x3f, 0x78, 0x80, 0x03, 0x00, 0x00, 0x00, 0x00,
   0x0f, 0x1c, 0x00, 0xf8, 0x80, 0x03, 0x00, 0x00, 0x00, 0x00, 0x0f, 0x3c,
   0x38, 0xfc, 0x81, 0x33, 0x00, 0x00, 0x00, 0x00, 0x0f, 0x7c, 0x3e, 0xfe,
   0x83, 0x37, 0x00, 0x00, 0x00, 0xc0, 0x3f, 0xfc, 0xff, 0xff, 0x9f, 0x3f,
   0x00, 0x00, 0x00, 0xc0, 0x3f, 0xf0, 0xcf, 0xff, 0x9f, 0x3f, 0x00, 0x00,
   0x00, 0x00, 0x00, 0x00, 0x00, 0x00, 0x00, 0x00, 0x00, 0x00, 0x00, 0x00,
   0x00, 0x00, 0x00, 0x00, 0x00, 0x00, 0x00, 0x00, 0x00, 0x00, 0x00, 0x00,
   0x00, 0x00, 0x00, 0x00, 0x00, 0x00, 0x00, 0x00, 0x00, 0x00, 0x00, 0x00,
   0x00, 0x00, 0x00, 0x00, 0x00, 0x00, 0x00, 0x00, 0x00, 0x00, 0x00, 0x00,
   0x00, 0x00, 0x00, 0x00, 0x00, 0x00, 0x00, 0x00, 0x00, 0x00, 0x00, 0x00,
   0x00, 0x00, 0x00, 0x00, 0x00, 0x00, 0x00, 0x00, 0x00, 0x00,  };
