#define text2_width 60
#define text2_height 21
static char text2_bits[] = {
   0x00, 0x00, 0x00, 0x00, 0x00, 0x00, 0x00, 0x00, 0x00, 0x00, 0x00, 0x00,
   0x00, 0x00, 0x00, 0x00, 0x00, 0x00, 0x00, 0x00, 0x00, 0x00, 0x00, 0x00,
   0x00, 0x00, 0x00, 0x00, 0x00, 0x00, 0x00, 0x00, 0xe0, 0xff, 0xf8, 0x87,
   0x80, 0xf1, 0x7f, 0x00, 0xe0, 0xff, 0xf8, 0x87, 0xc1, 0xf0, 0x7f, 0x00,
   0x00, 0x06, 0x18, 0x00, 0xc1, 0x00, 0x06, 0x00, 0x00, 0x06, 0x18, 0x00,
   0x63, 0x00, 0x06, 0x00, 0x00, 0x06, 0x18, 0x00, 0x36, 0x00, 0x06, 0x00,
   0x00, 0x06, 0x18, 0x00, 0x34, 0x00, 0x06, 0x00, 0x00, 0x06, 0xf8, 0x01,
   0x1c, 0x00, 0x06, 0x00, 0x00, 0x06, 0xf8, 0x01, 0x1c, 0x00, 0x06, 0x00,
   0x00, 0x06, 0x18, 0x00, 0x34, 0x00, 0x06, 0x00, 0x00, 0x06, 0x18, 0x00,
   0x36, 0x00, 0x06, 0x00, 0x00, 0x06, 0x18, 0x00, 0x63, 0x00, 0x06, 0x00,
   0x00, 0x06, 0x18, 0x00, 0xc1, 0x00, 0x06, 0x00, 0x00, 0x06, 0xf8, 0x87,
   0xc1, 0x00, 0x06, 0x00, 0x00, 0x06, 0xf8, 0x87, 0x80, 0x01, 0x06, 0x00,
   0x00, 0x00, 0x00, 0x00, 0x00, 0x00, 0x00, 0x00, 0x00, 0x00, 0x00, 0x00,
   0x00, 0x00, 0x00, 0x00, 0x00, 0x00, 0x00, 0x00, 0x00, 0x00, 0x00, 0x00};
