#define text41_width 79
#define text41_height 30
#define text41_x_hot 0
#define text41_y_hot 0
static char text41_bits[] = {
   0x00, 0x00, 0x00, 0x00, 0x00, 0x00, 0x00, 0x00, 0x00, 0x00, 0x00, 0x00,
   0x00, 0x00, 0x00, 0x00, 0x00, 0x00, 0x00, 0x00, 0x00, 0x00, 0x00, 0x00,
   0x00, 0x00, 0x00, 0x00, 0x00, 0x00, 0x00, 0x00, 0x00, 0x00, 0x00, 0x00,
   0x00, 0x00, 0x00, 0x00, 0x00, 0x00, 0x00, 0x00, 0x00, 0x00, 0x00, 0x00,
   0x00, 0x00, 0x00, 0x00, 0x00, 0x00, 0x00, 0x00, 0x00, 0x00, 0x00, 0x00,
   0x00, 0x00, 0x00, 0x00, 0x00, 0x00, 0x00, 0x00, 0x00, 0x00, 0x00, 0x00,
   0x00, 0x00, 0x00, 0x00, 0x00, 0x00, 0x00, 0x00, 0x00, 0x00, 0xfe, 0x01,
   0x00, 0x00, 0x03, 0x00, 0x00, 0x00, 0x00, 0x00, 0xe3, 0x00, 0x00, 0x00,
   0x03, 0x00, 0x00, 0x00, 0x00, 0x80, 0x40, 0x00, 0x00, 0x80, 0x01, 0x00,
   0x00, 0x00, 0x00, 0xc0, 0x40, 0x00, 0x00, 0x80, 0x01, 0x00, 0x00, 0x00,
   0x00, 0x40, 0x64, 0x00, 0x00, 0x80, 0x01, 0x00, 0x00, 0x00, 0x00, 0x40,
   0x66, 0x00, 0x00, 0xc0, 0x00, 0x00, 0x00, 0x00, 0x00, 0xc0, 0x32, 0x00,
   0x00, 0xe0, 0x03, 0x00, 0x00, 0x00, 0x00, 0x80, 0x31, 0x00, 0x00, 0xc0,
   0x00, 0x00, 0x00, 0x00, 0x00, 0x00, 0x10, 0x00, 0x00, 0xe0, 0x00, 0x00,
   0x00, 0x00, 0x00, 0x00, 0x18, 0x3c, 0xbc, 0x63, 0x00, 0x00, 0x00, 0x00,
   0x00, 0x00, 0x18, 0x26, 0xe2, 0x72, 0x00, 0x00, 0x00, 0x00, 0x00, 0x00,
   0x08, 0x23, 0x61, 0x70, 0x02, 0x00, 0x00, 0x00, 0x00, 0x10, 0x0c, 0x13,
   0x71, 0x38, 0x02, 0x00, 0x00, 0x00, 0x00, 0x30, 0x0e, 0x8b, 0x30, 0x38,
   0x01, 0x00, 0x00, 0x00, 0x00, 0x30, 0x07, 0xc6, 0x3e, 0xb6, 0x01, 0x00,
   0x00, 0x00, 0x00, 0xe0, 0x01, 0x7c, 0xcc, 0x63, 0x00, 0x00, 0x00, 0x00,
   0x00, 0x00, 0x00, 0x00, 0x00, 0x00, 0x00, 0x00, 0x00, 0x00, 0x00, 0x00,
   0x00, 0x00, 0x00, 0x00, 0x00, 0x00, 0x00, 0x00, 0x00, 0x00, 0x00, 0x00,
   0x00, 0x00, 0x00, 0x00, 0x00, 0x00, 0x00, 0x00, 0x00, 0x00, 0x00, 0x00,
   0x00, 0x00, 0x00, 0x00, 0x00, 0x00, 0x00, 0x00, 0x00, 0x00, 0x00, 0x00,
   0x00, 0x00, 0x00, 0x00, 0x00, 0x00, 0x00, 0x00, 0x00, 0x00, 0x00, 0x00,
    };
