#define text23_width 79
#define text23_height 30
#define text23_x_hot 0
#define text23_y_hot 0
static char text23_bits[] = {
   0x00, 0x00, 0x00, 0x00, 0x00, 0x00, 0x00, 0x00, 0x00, 0x00, 0x00, 0x00,
   0x00, 0x00, 0x00, 0x00, 0x00, 0x00, 0x00, 0x00, 0x00, 0x00, 0x00, 0x00,
   0x00, 0x00, 0x00, 0x00, 0x00, 0x00, 0x00, 0x00, 0x00, 0x00, 0x00, 0x00,
   0x00, 0x00, 0x00, 0x00, 0x00, 0x00, 0x00, 0x00, 0x00, 0x00, 0x00, 0x00,
   0x00, 0x00, 0x00, 0x00, 0x00, 0x00, 0x00, 0x00, 0x00, 0x00, 0x00, 0x00,
   0x00, 0x00, 0x00, 0x00, 0x00, 0x00, 0x00, 0x00, 0x00, 0x00, 0x00, 0x00,
   0x00, 0x00, 0x00, 0x00, 0x00, 0x00, 0x00, 0x00, 0x00, 0xf0, 0xff, 0x00,
   0x00, 0x00, 0x80, 0x01, 0x00, 0x00, 0x00, 0x30, 0xc7, 0x00, 0x00, 0x00,
   0x80, 0x01, 0x00, 0x00, 0x00, 0x30, 0xc7, 0x00, 0x00, 0x00, 0x80, 0x01,
   0x00, 0x00, 0x00, 0x30, 0xc7, 0x00, 0x00, 0x00, 0x80, 0x01, 0x00, 0x00,
   0x00, 0x30, 0xc7, 0x80, 0x83, 0xdf, 0xef, 0x0f, 0x00, 0x00, 0x00, 0x00,
   0x07, 0xe0, 0xc7, 0xff, 0xff, 0x0f, 0x00, 0x00, 0x00, 0x00, 0x07, 0xf8,
   0x0e, 0x8e, 0x83, 0x01, 0x00, 0x00, 0x00, 0x00, 0x07, 0x3c, 0x1c, 0x8c,
   0x81, 0x01, 0x00, 0x00, 0x00, 0x00, 0x07, 0xfc, 0x1f, 0xdc, 0x80, 0x01,
   0x00, 0x00, 0x00, 0x00, 0x07, 0xfc, 0x1f, 0xf8, 0x80, 0x01, 0x00, 0x00,
   0x00, 0x00, 0x07, 0x0c, 0x00, 0x70, 0x80, 0x01, 0x00, 0x00, 0x00, 0x00,
   0x07, 0x1c, 0x00, 0xf8, 0x80, 0x01, 0x00, 0x00, 0x00, 0x00, 0x07, 0x1c,
   0x10, 0xf8, 0x80, 0x23, 0x00, 0x00, 0x00, 0x00, 0x07, 0x3c, 0x1c, 0xcc,
   0x81, 0x33, 0x00, 0x00, 0x00, 0x80, 0x1f, 0xf8, 0x9f, 0xdf, 0x8f, 0x3f,
   0x00, 0x00, 0x00, 0xc0, 0x1f, 0xe0, 0xc7, 0xff, 0x0f, 0x3f, 0x00, 0x00,
   0x00, 0x00, 0x00, 0x00, 0x00, 0x00, 0x00, 0x00, 0x00, 0x00, 0x00, 0x00,
   0x00, 0x00, 0x00, 0x00, 0x00, 0x00, 0x00, 0x00, 0x00, 0x00, 0x00, 0x00,
   0x00, 0x00, 0x00, 0x00, 0x00, 0x00, 0x00, 0x00, 0x00, 0x00, 0x00, 0x00,
   0x00, 0x00, 0x00, 0x00, 0x00, 0x00, 0x00, 0x00, 0x00, 0x00, 0x00, 0x00,
   0x00, 0x00, 0x00, 0x00, 0x00, 0x00, 0x00, 0x00, 0x00, 0x00, 0x00, 0x00,
    };
