#define text12_width 79
#define text12_height 32
#define text12_x_hot 0
#define text12_y_hot 0
static char text12_bits[] = {
   0x00, 0x00, 0x00, 0x00, 0x00, 0x00, 0x00, 0x00, 0x00, 0x00, 0x00, 0x00,
   0x00, 0x00, 0x00, 0x00, 0x00, 0x00, 0x00, 0x00, 0x00, 0x00, 0x00, 0x00,
   0x00, 0x00, 0x00, 0x00, 0x00, 0x00, 0x00, 0x00, 0x00, 0x00, 0x00, 0x00,
   0x00, 0x00, 0x00, 0x00, 0x00, 0x00, 0x00, 0x00, 0x00, 0x00, 0x00, 0x00,
   0x00, 0x00, 0x00, 0x00, 0x00, 0x00, 0x00, 0x00, 0x00, 0x00, 0x00, 0x00,
   0x00, 0x00, 0x00, 0x00, 0x00, 0x00, 0x00, 0x00, 0x00, 0x00, 0x00, 0x00,
   0x00, 0x00, 0x00, 0x00, 0x00, 0x00, 0x00, 0x00, 0x00, 0x00, 0x00, 0x00,
   0x00, 0x00, 0x00, 0x00, 0x00, 0x00, 0x00, 0xf8, 0x3f, 0x00, 0x00, 0x00,
   0x04, 0x00, 0x00, 0x00, 0x00, 0x00, 0x01, 0x00, 0x00, 0x00, 0x04, 0x00,
   0x00, 0x00, 0x00, 0x00, 0x01, 0x00, 0x00, 0x00, 0x04, 0x00, 0x00, 0x00,
   0x00, 0x00, 0x01, 0x00, 0x00, 0x00, 0x04, 0x00, 0x00, 0x00, 0x00, 0x00,
   0x01, 0x00, 0x00, 0x00, 0x04, 0x00, 0x00, 0x00, 0x00, 0x00, 0x01, 0x78,
   0x10, 0x90, 0x1f, 0x00, 0x00, 0x00, 0x00, 0x00, 0x01, 0xc6, 0x20, 0x08,
   0x04, 0x00, 0x00, 0x00, 0x00, 0x00, 0x01, 0x83, 0x60, 0x0c, 0x04, 0x00,
   0x00, 0x00, 0x00, 0x00, 0x81, 0x01, 0xc1, 0x06, 0x04, 0x00, 0x00, 0x00,
   0x00, 0x00, 0x81, 0xff, 0x81, 0x02, 0x04, 0x00, 0x00, 0x00, 0x00, 0x00,
   0x81, 0x00, 0x00, 0x01, 0x04, 0x00, 0x00, 0x00, 0x00, 0x00, 0x81, 0x00,
   0x80, 0x02, 0x04, 0x00, 0x00, 0x00, 0x00, 0x00, 0x81, 0x01, 0xc0, 0x06,
   0x04, 0x00, 0x00, 0x00, 0x00, 0x00, 0x01, 0x03, 0x61, 0x0c, 0x04, 0x00,
   0x00, 0x00, 0x00, 0x00, 0x01, 0xc6, 0x20, 0x08, 0x0c, 0x00, 0x00, 0x00,
   0x00, 0x00, 0x01, 0x78, 0x10, 0x10, 0x38, 0x00, 0x00, 0x00, 0x00, 0x00,
   0x00, 0x00, 0x00, 0x00, 0x00, 0x00, 0x00, 0x00, 0x00, 0x00, 0x00, 0x00,
   0x00, 0x00, 0x00, 0x00, 0x00, 0x00, 0x00, 0x00, 0x00, 0x00, 0x00, 0x00,
   0x00, 0x00, 0x00, 0x00, 0x00, 0x00, 0x00, 0x00, 0x00, 0x00, 0x00, 0x00,
   0x00, 0x00, 0x00, 0x00, 0x00, 0x00, 0x00, 0x00, 0x00, 0x00, 0x00, 0x00,
   0x00, 0x00, 0x00, 0x00, 0x00, 0x00, 0x00, 0x00, 0x00, 0x00, 0x00, 0x00,
   0x00, 0x00, 0x00, 0x00, 0x00, 0x00, 0x00, 0x00,  };

