#define text1_width 60
#define text1_height 21
static char text1_bits[] = {
   0x00, 0x00, 0x00, 0x00, 0x00, 0x00, 0x00, 0x00, 0x00, 0x00, 0x00, 0x00,
   0x00, 0x00, 0x00, 0x00, 0x00, 0x00, 0x00, 0x00, 0x00, 0x00, 0x00, 0x00,
   0x00, 0x00, 0x00, 0x00, 0x00, 0x00, 0x00, 0x00, 0xe0, 0xff, 0xf8, 0x47,
   0x00, 0xf1, 0x7f, 0x00, 0x00, 0x04, 0x08, 0x80, 0x80, 0x00, 0x02, 0x00,
   0x00, 0x04, 0x08, 0x00, 0x41, 0x00, 0x02, 0x00, 0x00, 0x04, 0x08, 0x00,
   0x41, 0x00, 0x02, 0x00, 0x00, 0x04, 0x08, 0x00, 0x22, 0x00, 0x02, 0x00,
   0x00, 0x04, 0x08, 0x00, 0x14, 0x00, 0x02, 0x00, 0x00, 0x04, 0x08, 0x00,
   0x08, 0x00, 0x02, 0x00, 0x00, 0x04, 0xf8, 0x01, 0x08, 0x00, 0x02, 0x00,
   0x00, 0x04, 0x08, 0x00, 0x14, 0x00, 0x02, 0x00, 0x00, 0x04, 0x08, 0x00,
   0x22, 0x00, 0x02, 0x00, 0x00, 0x04, 0x08, 0x00, 0x41, 0x00, 0x02, 0x00,
   0x00, 0x04, 0x08, 0x00, 0x41, 0x00, 0x02, 0x00, 0x00, 0x04, 0x08, 0x80,
   0x80, 0x00, 0x02, 0x00, 0x00, 0x04, 0xf8, 0x47, 0x00, 0x01, 0x02, 0x00,
   0x00, 0x00, 0x00, 0x00, 0x00, 0x00, 0x00, 0x00, 0x00, 0x00, 0x00, 0x00,
   0x00, 0x00, 0x00, 0x00, 0x00, 0x00, 0x00, 0x00, 0x00, 0x00, 0x00, 0x00};
