#define text15_width 78
#define text15_height 31
#define text15_x_hot 0
#define text15_y_hot 0
static char text15_bits[] = {
   0x00, 0x00, 0x00, 0x00, 0x00, 0x00, 0x00, 0x00, 0x00, 0x00, 0x00, 0x00,
   0x00, 0x00, 0x00, 0x00, 0x00, 0x00, 0x00, 0x00, 0x00, 0x00, 0x00, 0x00,
   0x00, 0x00, 0x00, 0x00, 0x00, 0x00, 0x00, 0x00, 0x00, 0x00, 0x00, 0x00,
   0x00, 0x00, 0x00, 0x00, 0x00, 0x00, 0x00, 0x00, 0x00, 0x00, 0x00, 0x00,
   0x00, 0x00, 0x00, 0x00, 0x00, 0x00, 0x00, 0x00, 0x00, 0x00, 0x00, 0x00,
   0x00, 0x00, 0x00, 0x00, 0x00, 0x00, 0x00, 0x00, 0x00, 0x00, 0x00, 0x00,
   0x00, 0x00, 0x00, 0x00, 0x00, 0x00, 0x00, 0x00, 0x00, 0xf0, 0xff, 0x00,
   0x00, 0x00, 0x1c, 0x00, 0x00, 0x00, 0x00, 0xf0, 0xff, 0x00, 0x00, 0x00,
   0x1c, 0x00, 0x00, 0x00, 0x00, 0x00, 0x07, 0x00, 0x00, 0x00, 0x1c, 0x00,
   0x00, 0x00, 0x00, 0x00, 0x07, 0x00, 0x00, 0x00, 0x1c, 0x00, 0x00, 0x00,
   0x00, 0x00, 0x07, 0xf8, 0x70, 0xf0, 0x7f, 0x00, 0x00, 0x00, 0x00, 0x00,
   0x07, 0xfc, 0x73, 0xf0, 0x7f, 0x00, 0x00, 0x00, 0x00, 0x00, 0x07, 0xff,
   0xf3, 0xf8, 0x7f, 0x00, 0x00, 0x00, 0x00, 0x00, 0x07, 0x9f, 0xe7, 0x3d,
   0x1c, 0x00, 0x00, 0x00, 0x00, 0x00, 0x87, 0xff, 0xc7, 0x1f, 0x1c, 0x00,
   0x00, 0x00, 0x00, 0x00, 0x87, 0xff, 0x87, 0x0f, 0x1c, 0x00, 0x00, 0x00,
   0x00, 0x00, 0x87, 0xff, 0x07, 0x07, 0x1c, 0x00, 0x00, 0x00, 0x00, 0x00,
   0x87, 0x03, 0x80, 0x0f, 0x1c, 0x00, 0x00, 0x00, 0x00, 0x00, 0x87, 0x07,
   0xc7, 0x1f, 0x1c, 0x00, 0x00, 0x00, 0x00, 0x00, 0x07, 0x9f, 0xe7, 0x3d,
   0x1c, 0x00, 0x00, 0x00, 0x00, 0x00, 0x07, 0xff, 0xf7, 0x78, 0x7c, 0x00,
   0x00, 0x00, 0x00, 0x00, 0x07, 0xfc, 0x73, 0x70, 0x7c, 0x00, 0x00, 0x00,
   0x00, 0x00, 0x00, 0x00, 0x00, 0x00, 0x00, 0x00, 0x00, 0x00, 0x00, 0x00,
   0x00, 0x00, 0x00, 0x00, 0x00, 0x00, 0x00, 0x00, 0x00, 0x00, 0x00, 0x00,
   0x00, 0x00, 0x00, 0x00, 0x00, 0x00, 0x00, 0x00, 0x00, 0x00, 0x00, 0x00,
   0x00, 0x00, 0x00, 0x00, 0x00, 0x00, 0x00, 0x00, 0x00, 0x00, 0x00, 0x00,
   0x00, 0x00, 0x00, 0x00, 0x00, 0x00, 0x00, 0x00, 0x00, 0x00, 0x00, 0x00,
   0x00, 0x00, 0x00, 0x00, 0x00, 0x00, 0x00, 0x00, 0x00, 0x00,  };
